<svg width="90" height="47" viewBox="0 0 90 47" fill="none" xmlns="http://www.w3.org/2000/svg">
<path d="M27.1139 41.1266C21.2306 38.3854 16.5032 33.6113 13.7912 27.7202H13.3725C12.8635 27.7202 12.3652 27.7302 11.8668 27.76C10.8595 27.8197 9.87275 27.9298 8.89529 28.079C5.71409 28.6077 2.71205 29.6742 0 31.199C4.5077 40.1702 13.7819 46.3306 24.5127 46.3306C35.2434 46.3306 32.8393 45.3536 36.4392 43.5993C33.4975 43.3605 30.6853 42.6528 28.0728 41.5558C27.7536 41.4264 27.4244 41.2765 27.1152 41.1273L27.1139 41.1266Z" fill="#9BCD8F"/>
<path d="M42.8309 9.08066C42.1627 8.00353 41.4148 6.98676 40.5973 6.02039C38.5933 3.62802 36.1898 1.59447 33.497 0C31.1233 3.77792 29.6475 8.17332 29.3682 12.8984C32.5892 14.9916 35.3517 17.7329 37.4459 20.9516C38.2635 22.2079 38.9815 23.5138 39.58 24.8994C39.4997 24.0219 39.4599 23.145 39.4599 22.2583C39.4599 17.4735 40.6868 12.978 42.8408 9.07071L42.8309 9.08066Z" fill="#84C5C2"/>
<path d="M29.4287 17.0842C30.1168 24.5797 33.8263 31.2083 39.3313 35.7138C38.6432 28.2183 34.9338 21.5997 29.4287 17.0842Z" fill="#90D0B7"/>
<path d="M27.4935 27.7302C28.0124 28.0286 28.5201 28.3377 29.0191 28.6674C27.2938 25.0791 26.3369 21.0717 26.3369 16.8256C26.3369 15.9925 26.3568 15.5402 26.4066 14.9114C25.1497 14.1447 23.8232 13.4668 22.4476 12.9084C19.2565 11.5931 15.7561 10.8748 12.0765 10.8649C12.0566 11.1938 12.0566 11.5222 12.0566 11.8518C12.0566 16.2969 13.1144 20.494 14.999 24.2116C19.5365 24.3714 23.7848 25.627 27.4948 27.7302H27.4935Z" fill="#8DC8AB"/>
<path d="M35.5115 38.9638C31.2633 33.143 24.7708 29.066 17.3115 27.9895C21.5598 33.8103 28.0516 37.8873 35.5115 38.9638Z" fill="#97CCA1"/>
<path d="M44.6363 34.7772C45.9429 34.7772 47.0093 29.7836 47.0093 23.6232C47.0093 17.4629 45.9422 12.4692 44.6363 12.4692C43.3304 12.4692 42.2627 17.4629 42.2627 23.6232C42.2627 29.7836 43.3304 34.7772 44.6363 34.7772Z" fill="#82C9BE"/>
<path d="M80.3784 28.079C79.4009 27.9192 78.4135 27.8098 77.4069 27.76C76.9078 27.7308 76.4095 27.7202 75.8912 27.7202C75.373 27.7202 75.6119 27.7202 75.4725 27.7202C72.7605 33.6119 68.0331 38.3754 62.1492 41.1266C61.8399 41.2765 61.5208 41.4152 61.1916 41.5551C58.5891 42.6515 55.7668 43.3598 52.8252 43.5986C56.4251 45.3529 60.4842 46.3299 64.7524 46.3299C75.4732 46.3299 84.7573 40.1702 89.2644 31.1983C86.5523 29.6735 83.5503 28.607 80.3691 28.0784H80.379L80.3784 28.079Z" fill="#57BBE6"/>
<path d="M51.8368 20.9623C53.931 17.7429 56.6836 14.9917 59.9146 12.9084C59.6352 8.184 58.1594 3.79787 55.7858 0.0100098C53.0929 1.5952 50.6802 3.63803 48.6848 6.0304C47.8772 6.98682 47.1194 8.0142 46.4512 9.09067C48.6052 12.9979 49.8314 17.4935 49.8314 22.2776C49.8314 23.7778 49.7823 24.0418 49.712 24.9193C50.3106 23.5338 51.0279 22.2278 51.8461 20.9716L51.8361 20.9617L51.8368 20.9623Z" fill="#72C3C7"/>
<path d="M49.9414 35.7144C55.4458 31.199 59.1552 24.5704 59.844 17.0848C54.339 21.6003 50.6295 28.2289 49.9414 35.7144Z" fill="#7AC4C8"/>
<path d="M61.7795 27.7302C65.4889 25.6263 69.7378 24.3708 74.2754 24.2116C76.1599 20.504 77.217 16.2969 77.217 11.8518C77.217 11.2801 77.217 11.1938 77.1971 10.8649C73.5268 10.8649 70.0265 11.5925 66.826 12.9084C65.4497 13.4668 64.1232 14.1447 62.8671 14.9114C62.9169 15.5402 62.9368 16.1776 62.9368 16.8256C62.9368 21.0625 61.9693 25.0791 60.2539 28.6674C60.743 28.3377 61.2519 28.0293 61.7801 27.7302H61.7795Z" fill="#5CC3D8"/>
<path d="M53.7617 38.9638C61.221 37.8873 67.7135 33.8103 71.9617 27.9895C64.5024 29.066 58.01 33.143 53.7617 38.9638Z" fill="#60BBE9"/>
<path d="M44.6467 46.2297C46.8206 46.2297 48.5864 44.4655 48.5864 42.292C48.5864 40.1185 46.8213 38.3549 44.6467 38.3549C42.4722 38.3549 40.707 40.1191 40.707 42.292C40.707 44.4648 42.4722 46.2297 44.6467 46.2297Z" fill="#1B2753"/>
<path d="M43.7383 40.3592C43.7582 40.3691 43.7775 40.3791 43.798 40.389C43.8179 40.399 43.8372 40.4089 43.8578 40.4182H43.9175C43.9374 40.4182 43.9673 40.4083 43.9673 40.4182C43.9175 40.4381 43.8777 40.4481 43.8272 40.458C43.8272 40.458 43.8671 40.4779 43.887 40.4878C43.9069 40.4978 43.9268 40.5475 43.9367 40.5774C43.9467 40.5774 43.9566 40.5575 43.9765 40.5482C43.9865 40.5283 44.0064 40.5184 44.0263 40.5283C44.0462 40.5383 44.0661 40.5781 44.096 40.5781H44.305C44.3249 40.5979 44.3448 40.6079 44.3754 40.6178C44.3853 40.6178 44.3953 40.6178 44.4046 40.6377V40.718C44.4046 40.7379 44.4444 40.7379 44.4444 40.7677C44.4444 40.7976 44.3747 40.8075 44.3448 40.8175C44.3156 40.8374 44.2851 40.8672 44.2652 40.8971H44.4444C44.4941 40.8971 44.5539 40.8871 44.5943 40.8579C44.5943 40.8778 44.6142 40.8971 44.6242 40.9077L44.6441 40.9276H44.6939C44.7138 40.9176 44.7138 40.9276 44.7231 40.9475C44.7231 40.9475 44.7231 40.9574 44.733 40.9674C44.743 40.9773 44.743 40.9674 44.7529 40.9674H44.8425C44.8525 40.9674 44.8624 40.9773 44.8717 40.9873H44.8916C44.8916 40.9873 44.9016 40.9873 44.9115 40.9773C44.9215 40.9574 44.9314 40.9475 44.9414 40.9276C44.9414 40.9077 44.9513 40.8878 44.9613 40.8778C44.9613 40.8679 44.9812 40.8579 44.9912 40.8487H45.0303C45.0502 40.8487 45.0602 40.8686 45.0801 40.8778C45.1 40.8778 45.1099 40.8878 45.1298 40.8878C45.1498 40.8878 45.1398 40.8878 45.1498 40.9077C45.1498 40.9276 45.1498 40.9468 45.1697 40.9574C45.1697 40.9674 45.1896 40.9773 45.1995 40.9866L45.2792 41.0264C45.3495 41.0563 45.4192 41.0762 45.4981 41.0961C45.4981 41.0961 45.4981 41.0569 45.4689 41.0463L45.4291 41.0171C45.4092 41.0171 45.3993 40.9972 45.3893 40.9773C45.3601 40.9375 45.3296 40.8778 45.2798 40.8971C45.2798 40.8772 45.2798 40.8679 45.2699 40.8579C45.2599 40.838 45.24 40.8281 45.23 40.8181C45.2101 40.7983 45.1902 40.7883 45.1803 40.7684C45.1803 40.7386 45.2201 40.7485 45.24 40.7485H45.2798C45.2798 40.7485 45.2898 40.7286 45.2798 40.7187C45.2699 40.7087 45.2201 40.6988 45.2002 40.6988C45.1803 40.6988 45.1604 40.6789 45.1405 40.659C45.1206 40.649 45.0907 40.6391 45.0701 40.6192C45.0496 40.5993 45.0409 40.59 45.0303 40.5595C45.0303 40.5396 45.0104 40.5197 44.9912 40.5097H44.9308C44.9016 40.5097 44.8711 40.4998 44.8412 40.4799C44.8213 40.4799 44.8113 40.46 44.7914 40.46H44.7111C44.6912 40.46 44.672 40.4401 44.6614 40.4401C44.6415 40.4301 44.6116 40.4202 44.5817 40.4202C44.522 40.4202 44.4722 40.4202 44.4119 40.4102C44.3515 40.4003 44.3415 40.3705 44.3017 40.3705C44.2619 40.3705 44.232 40.4003 44.2121 40.4301C44.1922 40.4699 44.1524 40.5004 44.1126 40.5197H44.0827C44.0728 40.5197 44.0628 40.5097 44.0535 40.4998C44.0535 40.4998 44.0535 40.4799 44.0436 40.4799C44.0336 40.4799 44.0237 40.4699 44.0237 40.4699C44.0137 40.4699 44.0038 40.4699 43.9945 40.46V40.3506C43.9945 40.3406 43.9746 40.3307 43.9646 40.3207C43.9546 40.3108 43.9347 40.3207 43.9248 40.3207H43.8153C43.8053 40.3207 43.8053 40.3406 43.7954 40.3506C43.7854 40.3605 43.7954 40.3506 43.7954 40.3605C43.7954 40.3605 43.7854 40.3804 43.7854 40.3903H43.7463L43.7363 40.3605L43.7383 40.3592Z" fill="#858E37"/>
<path d="M42.6517 41.1565H42.5522C42.5223 41.1565 42.5522 41.1273 42.5223 41.1366H42.3929L42.4128 41.1167C42.4327 41.1167 42.4526 41.1167 42.4725 41.1067C42.4925 41.1067 42.5024 41.0868 42.5124 41.0676C42.4626 41.0676 42.4128 41.1067 42.3723 41.0968H42.3027C42.2629 41.0968 42.233 41.1465 42.1932 41.1565C42.1534 41.1664 42.1036 41.1863 42.1129 41.1366C42.1029 41.1366 42.093 41.1465 42.0737 41.1565V41.1366L42.0638 41.1266H42.0538V41.1366V40.9767C42.0439 40.9469 42.0737 40.9369 42.0737 40.917C42.0737 40.8971 42.0671 40.8839 42.0538 40.8772C42.0339 40.8772 42.0339 40.8673 42.0339 40.8573V40.8175L42.014 40.8076C41.9941 40.7976 42.0041 40.8076 41.9941 40.8076C41.9842 40.8076 41.9841 40.8275 41.9841 40.8368V40.8567C41.9841 40.8666 41.9842 40.8958 41.9642 40.8859C41.9443 40.8759 41.9251 40.8467 41.9251 40.8262C41.9251 40.7864 41.9052 40.7466 41.8853 40.7068C41.8853 40.6968 41.8554 40.6769 41.8455 40.667C41.8355 40.657 41.8256 40.6371 41.8163 40.6272C41.8163 40.6172 41.7964 40.6172 41.7864 40.598C41.7864 40.598 41.7764 40.5781 41.7665 40.5682C41.7665 40.5582 41.7366 40.5184 41.7366 40.5184C41.7267 40.5085 41.7068 40.4786 41.6769 40.4892C41.6769 40.4892 41.667 40.4892 41.667 40.5091C41.667 40.5091 41.667 40.5191 41.657 40.5091C41.657 40.5091 41.647 40.4992 41.647 40.4892C41.647 40.476 41.6437 40.466 41.6371 40.4594C41.6271 40.4494 41.6271 40.4594 41.6371 40.4594V40.4793C41.6371 40.4992 41.6271 40.5191 41.6172 40.5396C41.6172 40.5595 41.6172 40.5894 41.6271 40.5993H41.6371C41.6471 40.5993 41.6471 40.6093 41.657 40.6192C41.657 40.6292 41.667 40.6391 41.6769 40.6491C41.6869 40.669 41.7068 40.6882 41.7267 40.6988C41.7466 40.7685 41.7665 40.8281 41.8063 40.8978C41.8362 40.978 41.8766 41.0576 41.9364 41.1173C41.9364 41.1173 41.9563 41.0974 41.9656 41.1074L41.9755 41.1273C41.9755 41.1372 41.9954 41.1472 42.0047 41.1565H42.0346C42.0445 41.1565 42.0545 41.1565 42.0545 41.1366V41.1664C42.0545 41.1664 42.0147 41.1956 42.0047 41.2162C42.0246 41.2162 42.0346 41.2162 42.0545 41.1963C42.0744 41.1764 42.0545 41.2162 42.0844 41.2162C42.1142 41.2162 42.0943 41.2162 42.1043 41.2261H42.1341C42.1633 41.2261 42.1839 41.2062 42.2137 41.1963C42.2337 41.1863 42.2635 41.1764 42.294 41.1764H42.6331C42.6331 41.1764 42.663 41.1664 42.6929 41.1565H42.6537H42.6517Z" fill="#D7E380"/>
<path d="M43.1503 41.1963C43.1702 41.1963 43.1802 41.1764 43.1901 41.1671L43.2797 41.0775C43.2996 41.0477 43.3195 41.0278 43.3494 41.0179C43.3792 41.0179 43.4091 40.988 43.4297 40.9681C43.3998 40.9482 43.3693 41.0079 43.3301 40.988C43.2903 40.9781 43.2405 41.0378 43.21 41.0683C43.1901 41.0782 43.1808 41.0974 43.1709 41.118V41.1379C43.151 41.1578 43.131 41.1777 43.1211 41.1976H43.131L43.141 41.1777L43.151 41.1976L43.1503 41.1963Z" fill="#32351B"/>
<path d="M41.754 39.6814C41.774 39.6615 41.7839 39.6416 41.7939 39.6118L41.8138 39.5919H41.8337V39.6522C41.8337 39.6522 41.8337 39.6914 41.8138 39.6914C41.8038 39.6914 41.7939 39.7113 41.7839 39.7212C41.7839 39.7312 41.774 39.7411 41.764 39.761C41.764 39.7809 41.754 39.7902 41.754 39.8108C41.774 39.7809 41.7939 39.7504 41.8244 39.7212C41.8244 39.7212 41.8443 39.7113 41.8536 39.7212C41.8635 39.7312 41.8536 39.7809 41.8337 39.8008C41.8337 39.8207 41.8237 39.8406 41.8138 39.8711C41.8138 39.891 41.8038 39.9109 41.7939 39.9209C41.7939 39.9408 41.774 39.96 41.774 39.9806V40.08C41.774 40.0999 41.774 40.1298 41.764 40.1497C41.764 40.1696 41.764 40.1795 41.7441 40.1994C41.7341 40.2094 41.7242 40.2293 41.7149 40.2492C41.754 40.2492 41.7647 40.289 41.7647 40.3294V40.5284C41.7939 40.5284 41.8144 40.5583 41.8343 40.5682L41.8841 40.5981L41.9339 40.6372C41.9339 40.5981 41.914 40.5576 41.8941 40.5277C41.8941 40.5078 41.8742 40.4886 41.8742 40.478V40.3984C41.8742 40.3387 41.8343 40.279 41.7939 40.2286C41.7647 40.1888 41.7939 40.1391 41.7939 40.0887V40.0084C41.7939 39.9885 41.8138 39.9587 41.8237 39.9388C41.8237 39.899 41.8436 39.8592 41.8635 39.8293C41.8635 39.8293 41.8834 39.8094 41.8927 39.8094H41.9325C41.9525 39.8293 41.9724 39.8592 41.9823 39.889C41.9823 39.9089 41.9923 39.9189 41.9923 39.9388V39.9587H42.0122C42.0122 39.9885 42.0122 40.019 42.0022 40.0482C42.0321 40.0482 42.042 40.0084 42.052 39.9786C42.062 39.9487 42.1018 39.9288 42.1323 39.8983C42.1522 39.8691 42.1615 39.8287 42.1821 39.7988C42.202 39.7597 42.2517 39.7491 42.2716 39.7192C42.2816 39.6993 42.2915 39.6794 42.3015 39.6595V39.6098C42.3015 39.5899 42.3115 39.58 42.3214 39.5601C42.3214 39.5402 42.3413 39.5203 42.3214 39.5103C42.3015 39.5004 42.3015 39.5103 42.3015 39.4904V39.4413C42.3015 39.4015 42.2716 39.381 42.2517 39.3518C42.3015 39.302 42.332 39.2523 42.3818 39.2019C42.4017 39.182 42.411 39.172 42.4309 39.1522C42.4508 39.1422 42.4807 39.1522 42.5012 39.1522C42.5112 39.1522 42.5218 39.1522 42.5012 39.1522C42.4913 39.1522 42.4813 39.2218 42.4515 39.2516C42.4216 39.2808 42.3818 39.2914 42.3712 39.3213C42.4209 39.3213 42.4515 39.2715 42.4608 39.2317C42.4707 39.1919 42.4906 39.1614 42.5304 39.1614V39.1117C42.5304 39.1017 42.5503 39.0918 42.5603 39.0918L42.6406 39.052C42.6897 39.0222 42.7401 38.9824 42.8005 38.9525C42.8602 38.9233 42.91 38.9028 42.9704 38.8729C43.0202 38.8431 43.0699 38.8026 43.1104 38.7635C43.1801 38.6932 43.2703 38.6534 43.3294 38.5638L43.3493 38.5439C42.6612 38.7734 42.0427 39.1919 41.5742 39.7398C41.6339 39.7298 41.6937 39.7106 41.7534 39.6801L41.754 39.6814Z" fill="#32351B"/>
<path d="M45.7132 42.5725V42.5122C45.7132 42.4923 45.7032 42.473 45.6932 42.4425C45.6932 42.4226 45.6932 42.4134 45.7032 42.3928V42.353L45.6833 42.363C45.6634 42.3729 45.6733 42.363 45.6634 42.363C45.6634 42.363 45.6534 42.3629 45.6435 42.353V42.3331C45.6435 42.3132 45.6236 42.3033 45.6037 42.2933C45.6037 42.2834 45.5838 42.2734 45.5745 42.2542L45.5546 42.2144C45.5346 42.1845 45.5154 42.1646 45.5048 42.1341C45.4982 42.1142 45.4882 42.101 45.4756 42.0943H45.4557C45.4358 42.0943 45.4265 42.0744 45.4265 42.0552C45.4265 42.036 45.4265 42.0055 45.4066 41.9849C45.4066 41.965 45.3966 41.9351 45.3674 41.9252C45.3575 41.9252 45.3475 41.9053 45.3376 41.896C45.3376 41.896 45.3276 41.8861 45.3177 41.8761H45.2878C45.2679 41.8761 45.2679 41.8562 45.2586 41.8469H45.2088C45.1989 41.8469 45.179 41.827 45.179 41.8071C45.179 41.8071 45.1591 41.7872 45.1591 41.7673V41.6977C45.1591 41.6778 45.1392 41.6579 45.1292 41.648C45.1192 41.6281 45.1093 41.5982 45.1 41.5677V41.5286C45.1 41.5186 45.1 41.5087 45.09 41.4987C45.09 41.4987 45.0701 41.4888 45.0701 41.4689V41.4397C45.0701 41.4198 45.0502 41.4098 45.0403 41.3899C45.0111 41.3601 44.9407 41.3601 44.9308 41.3097C44.9308 41.2898 44.9208 41.2706 44.9208 41.2401V41.1505C44.9208 41.1306 44.9009 41.1114 44.8916 41.0908C44.8717 41.0709 44.8618 41.051 44.8419 41.0311C44.8319 41.051 44.822 41.0709 44.822 41.1008C44.822 41.1207 44.8021 41.1306 44.7821 41.1406V41.1903C44.7821 41.2003 44.7821 41.2202 44.7622 41.2301C44.7523 41.25 44.7423 41.2699 44.7423 41.2898C44.7423 41.3395 44.7921 41.3694 44.7815 41.4191C44.7815 41.4689 44.7616 41.449 44.7523 41.4689V41.5491C44.7523 41.569 44.7324 41.5783 44.7224 41.5889C44.7224 41.5989 44.7125 41.6088 44.7025 41.6181C44.7025 41.648 44.6727 41.6679 44.6528 41.6884C44.6528 41.6884 44.6528 41.6785 44.6428 41.6685C44.6328 41.6586 44.6328 41.6685 44.6229 41.6685C44.6129 41.6685 44.603 41.6586 44.5937 41.6486C44.5937 41.6486 44.5937 41.6287 44.5738 41.6287H44.5446C44.5247 41.6287 44.5247 41.6188 44.5247 41.5995V41.5796C44.5247 41.5697 44.5147 41.5796 44.5048 41.5796C44.4849 41.5796 44.465 41.5505 44.4451 41.5405C44.4451 41.5405 44.4251 41.5306 44.4152 41.5206C44.4152 41.5206 44.3953 41.5107 44.386 41.5107C44.3661 41.5107 44.3561 41.4815 44.3362 41.4709H44.3064C44.2865 41.4709 44.2672 41.4609 44.2566 41.451L44.2367 41.4311H44.2566C44.2566 41.3913 44.2865 41.3913 44.2964 41.3608V41.2911L44.3163 41.2712C44.3163 41.2712 44.3362 41.2613 44.3362 41.2513C44.3362 41.2513 44.3462 41.2314 44.3462 41.2221C44.3462 41.2022 44.3163 41.1824 44.3064 41.1724C44.3064 41.1724 44.3064 41.1923 44.2964 41.1923C44.2865 41.2221 44.2566 41.1923 44.2466 41.1823L44.1571 41.2022H44.0675C44.0376 41.1824 44.0177 41.1731 43.9872 41.1625H43.9474V41.1823C43.9474 41.1823 43.8976 41.2022 43.8876 41.2022C43.8677 41.2022 43.8478 41.2221 43.8279 41.2321L43.7682 41.2918C43.7682 41.2918 43.7383 41.3614 43.7284 41.3714C43.7284 41.3813 43.7085 41.4211 43.7284 41.4317C43.7284 41.4417 43.7284 41.4516 43.7085 41.4609C43.7085 41.4609 43.6886 41.4709 43.6786 41.4808C43.6587 41.4808 43.6288 41.4808 43.6089 41.4709C43.5791 41.4709 43.5691 41.4417 43.5592 41.4211C43.5492 41.4012 43.5393 41.3919 43.5194 41.3919C43.4994 41.3919 43.4902 41.4019 43.4795 41.4118C43.4596 41.4317 43.4503 41.4417 43.4298 41.4616C43.4198 41.4815 43.3906 41.4616 43.38 41.4616C43.3694 41.4616 43.38 41.4914 43.38 41.5014H43.3601C43.3601 41.5014 43.3501 41.5014 43.3402 41.5213V41.6108H43.3203C43.3004 41.6108 43.3004 41.6506 43.3203 41.6606C43.3302 41.6606 43.3402 41.6705 43.3402 41.6904V41.7004H43.3302C43.3203 41.7004 43.3004 41.7103 43.2904 41.7103C43.2904 41.6904 43.2904 41.6705 43.2705 41.6506C43.2506 41.6705 43.2314 41.7004 43.2207 41.7203V41.7799C43.2207 41.7799 43.2108 41.7799 43.2008 41.7899V41.829C43.2008 41.829 43.2008 41.8489 43.1909 41.8489C43.1909 41.8781 43.171 41.8987 43.161 41.9285C43.1511 41.9385 43.1212 41.9285 43.1013 41.9385C43.0913 41.9385 43.0814 41.9484 43.0721 41.9584H43.0323C43.0323 41.9584 43.0323 41.9783 43.0124 41.9783C43.0124 41.9882 42.9925 41.9982 42.9832 42.0081H42.9533C42.9434 42.0081 42.9334 41.9982 42.9241 41.9882H42.9142C42.9042 41.9882 42.9142 41.9882 42.9142 41.9982V42.0181H42.8943V42.0578C42.8943 42.0678 42.8744 42.087 42.8651 42.097C42.8651 42.1069 42.8352 42.1368 42.8252 42.1368H42.8053C42.7854 42.1368 42.7662 42.1766 42.7761 42.1965C42.816 42.1965 42.8053 42.2363 42.8053 42.2668C42.8053 42.2973 42.7954 42.3165 42.7954 42.3464V42.4664C42.7954 42.4764 42.8053 42.4863 42.8153 42.4956H42.8445C42.8544 42.4956 42.8644 42.4956 42.8744 42.5155C42.8744 42.5354 42.8544 42.5354 42.8445 42.5354V42.5752C42.8445 42.5951 42.8744 42.5951 42.8843 42.6044C42.8943 42.6137 42.8843 42.6342 42.9042 42.6442C42.9241 42.6541 42.9241 42.6641 42.9341 42.674C42.9341 42.684 42.944 42.6939 42.954 42.7131C42.954 42.7231 42.954 42.733 42.9739 42.743L43.0031 42.7629C43.0031 42.7728 43.023 42.7927 43.023 42.8126C43.023 42.8325 43.0429 42.8524 43.0621 42.8723C43.0721 42.8723 43.0821 42.8823 43.092 42.9022C43.092 42.9121 43.092 42.9221 43.102 42.932C43.102 42.932 43.1219 42.9519 43.1318 42.9612C43.1318 42.9612 43.1517 42.9811 43.1517 42.9911C43.1617 43.0202 43.1716 43.0408 43.1816 43.0706C43.1816 43.0905 43.2015 43.1104 43.1816 43.1204H43.1716V43.1303C43.1716 43.1502 43.2015 43.1801 43.2115 43.19C43.2413 43.2099 43.2712 43.2199 43.301 43.2199C43.3409 43.2199 43.3707 43.2 43.3906 43.1701C43.4105 43.1801 43.4198 43.1701 43.4404 43.1701C43.4404 43.1602 43.4603 43.1409 43.4696 43.1303C43.4895 43.1204 43.5194 43.1104 43.5399 43.1204C43.5791 43.1204 43.6196 43.1005 43.6594 43.1005H43.6793C43.6793 43.1005 43.6992 43.1005 43.6992 43.0806C43.6992 43.0806 43.7284 43.0514 43.7383 43.0415C43.7383 43.0216 43.7582 43.0017 43.7682 42.9917C43.7881 42.9917 43.7981 42.9818 43.818 42.9818C43.8578 42.9818 43.8876 42.9619 43.9175 42.9426L43.9673 42.9227C43.9772 42.9227 43.9965 42.9128 44.0071 42.9028H44.0363C44.0661 42.8829 44.096 42.873 44.1259 42.873C44.1557 42.873 44.1856 42.8829 44.2055 42.9028C44.2254 42.9128 44.2553 42.9227 44.2758 42.932H44.3654C44.3953 42.932 44.3853 42.9718 44.3953 42.9818C44.3953 43.0017 44.4756 43.0116 44.4849 43.0521C44.4942 43.0919 44.4849 43.1217 44.5048 43.1416C44.5247 43.1615 44.5545 43.0919 44.5645 43.0813C44.5744 43.0713 44.5944 43.0421 44.6143 43.0116C44.6342 42.9917 44.6541 42.9519 44.664 42.9121C44.674 42.8829 44.6939 42.8624 44.7038 42.8325C44.7238 42.8027 44.7337 42.7828 44.7636 42.7523H44.7735C44.7636 42.7722 44.7443 42.802 44.7238 42.8325C44.7138 42.8524 44.7038 42.8617 44.6946 42.8823C44.6946 42.9022 44.6846 42.9214 44.6746 42.942C44.6746 42.9619 44.6746 42.9712 44.6547 42.9811C44.6547 42.9811 44.6348 43.001 44.6348 43.011C44.6348 43.0209 44.6348 43.0507 44.6149 43.0706V43.1602C44.6348 43.1602 44.6448 43.1602 44.6547 43.1403C44.6746 43.1303 44.6946 43.1204 44.7045 43.1104L44.7344 43.1502C44.7543 43.1701 44.7735 43.2 44.7941 43.2099C44.814 43.2298 44.8332 43.2597 44.8439 43.2895C44.8538 43.3094 44.8731 43.3293 44.883 43.3499C44.9029 43.3598 44.9129 43.3698 44.9328 43.3791L45.0131 43.4089H45.183C45.2228 43.4089 45.2632 43.448 45.3024 43.4381C45.3422 43.4381 45.4019 43.3784 45.4424 43.3486C45.4723 43.3386 45.4922 43.3287 45.5227 43.3187C45.5426 43.3187 45.5619 43.2988 45.5725 43.2889C45.5824 43.269 45.5924 43.2597 45.5924 43.2391V43.1894C45.5924 43.1794 45.6123 43.1602 45.6222 43.1502C45.6421 43.1303 45.6514 43.1204 45.6614 43.0905C45.6614 43.0607 45.6614 43.0302 45.6813 43.001C45.7105 42.9513 45.741 42.9115 45.7808 42.871C45.81 42.8319 45.8306 42.7815 45.8406 42.7317C45.8406 42.682 45.8605 42.6322 45.8804 42.5818C45.8804 42.5619 45.8903 42.542 45.9003 42.5115V42.4419L45.82 42.4618H45.8299L45.7198 42.5719L45.7132 42.5725Z" fill="#32351B"/>
<path d="M45.0753 43.848C45.0753 43.8679 45.0952 43.8878 45.1151 43.8978C45.1748 43.9276 45.2246 43.848 45.2346 43.7983C45.2545 43.7386 45.2545 43.6689 45.2346 43.5986C45.2346 43.6285 45.2346 43.6689 45.2147 43.6789C45.1848 43.6888 45.1549 43.6988 45.1344 43.6888H45.0746C45.0547 43.6888 45.0455 43.6888 45.0249 43.6789L44.9957 43.659H44.9658C45.0056 43.6689 45.0255 43.7193 45.0355 43.7485C45.0454 43.7784 45.0554 43.8288 45.0654 43.8381L45.0753 43.848Z" fill="#32351B"/>
<path d="M46.8302 43.7479C46.8302 43.7479 46.8302 43.728 46.8203 43.728C46.8103 43.728 46.8004 43.718 46.8004 43.718H46.7712C46.7712 43.718 46.7512 43.718 46.7512 43.7379V43.718C46.7512 43.718 46.7015 43.7379 46.6816 43.7571C46.6617 43.777 46.6219 43.8275 46.6013 43.8566L46.5621 43.8865C46.5323 43.9064 46.5024 43.9263 46.4725 43.9362C46.4725 43.9362 46.4626 43.9362 46.4526 43.9462C46.4526 43.9661 46.4327 43.9462 46.4228 43.9462H46.383L46.3631 43.9661C46.3431 43.986 46.3332 43.9959 46.3232 44.0264H46.3531C46.3531 44.0556 46.3232 44.106 46.3531 44.1259C46.3823 44.1458 46.3923 44.1259 46.4029 44.1259C46.4135 44.1259 46.4228 44.116 46.4321 44.106C46.4414 44.0961 46.4619 44.0861 46.4818 44.0768C46.5017 44.0669 46.5316 44.047 46.5416 44.0165C46.5416 43.9966 46.5615 43.9773 46.5714 43.9568C46.5913 43.9568 46.6006 43.9369 46.6212 43.9276L46.661 43.9077L46.7002 43.8785L46.7201 43.8586H46.7493C46.7493 43.8294 46.7493 43.7691 46.7891 43.7691H46.809L46.8289 43.7492L46.8302 43.7479Z" fill="#32351B"/>
<path d="M47.09 43.5091C47.09 43.519 47.0701 43.5383 47.0502 43.5383C47.0502 43.5383 47.0303 43.5283 47.0303 43.5184C47.0104 43.4985 47.0104 43.4686 47.0104 43.4381C47.0104 43.4182 47.0104 43.399 46.9905 43.3884C46.9706 43.3685 46.9507 43.3592 46.9507 43.3287C46.9507 43.2982 46.9507 43.259 46.9109 43.259C46.8817 43.259 46.8817 43.2789 46.8817 43.2988C46.8817 43.328 46.8916 43.3585 46.9109 43.3884C46.9208 43.4083 46.9308 43.4282 46.9407 43.4587C46.9407 43.4786 46.9407 43.4978 46.9308 43.5184C46.9308 43.5383 46.9109 43.5582 46.9009 43.5781C46.891 43.588 46.8717 43.588 46.8511 43.598C46.8312 43.598 46.8312 43.6179 46.822 43.6378H46.8611V43.6577C46.8611 43.6868 46.8611 43.6968 46.8412 43.7273C46.8213 43.7472 46.8213 43.7565 46.8213 43.7671V43.787C46.8213 43.777 46.8505 43.7571 46.8711 43.7372C46.891 43.7273 46.9003 43.7074 46.9208 43.6974C46.9308 43.6776 46.9407 43.6583 46.95 43.6477C46.96 43.6378 46.9799 43.6278 46.9998 43.6185C47.0297 43.5986 47.0496 43.5887 47.0801 43.5688C47.0801 43.5588 47.09 43.5489 47.09 43.529C47.09 43.5091 47.09 43.4991 47.0801 43.4892V43.5091H47.09Z" fill="#32351B"/>
<path d="M43.79 41.2062C43.79 41.2062 43.78 41.1863 43.78 41.177C43.76 41.177 43.7406 41.187 43.71 41.1969C43.69 41.1969 43.66 41.2168 43.67 41.2367C43.67 41.2964 43.76 41.2566 43.8006 41.2367V41.2168L43.7906 41.2068L43.79 41.2062Z" fill="#32351B"/>
<path d="M43.2909 38.7143C43.2509 38.7143 43.2103 38.7534 43.1809 38.784V38.8237C43.1809 38.8436 43.1809 38.8529 43.1609 38.8735C43.1609 38.8735 43.1609 38.8934 43.1509 38.9027C43.1409 38.912 43.1509 38.9226 43.1509 38.9325C43.1709 38.9325 43.1809 38.9126 43.1909 38.9027C43.2009 38.8927 43.2109 38.8735 43.2209 38.8629C43.2309 38.8337 43.2409 38.7833 43.2709 38.7634C43.3003 38.7435 43.3209 38.7435 43.3103 38.7236L43.3003 38.7137C43.2903 38.7037 43.3003 38.7137 43.2803 38.7137H43.2903L43.2909 38.7143Z" fill="#32351B"/>
<path d="M43.0202 39.2529H43.0401C43.0401 39.2821 43.0202 39.3027 43.0401 39.3226C43.0401 39.3226 43.06 39.3226 43.07 39.3126C43.0899 39.3325 43.1092 39.3425 43.1297 39.3524H43.1589C43.1689 39.3524 43.1788 39.3425 43.1788 39.3325V39.3425C43.1788 39.3524 43.1788 39.3425 43.1888 39.3425C43.1987 39.3425 43.2087 39.3325 43.2186 39.3226H43.2983C43.2983 39.3226 43.2883 39.3027 43.2784 39.3027C43.2883 39.3027 43.2983 39.2927 43.3076 39.2728C43.3076 39.2728 43.2279 39.3027 43.2279 39.2728C43.2279 39.2728 43.1576 39.2828 43.1384 39.2629V39.2231L43.1682 39.2032C43.1881 39.1833 43.2578 39.1335 43.1974 39.1136C43.1974 39.1037 43.2173 39.0845 43.2273 39.0739H43.1675C43.1377 39.0739 43.1072 39.0838 43.0873 39.1037C43.0873 39.1037 43.0581 39.1335 43.0873 39.1435C43.147 39.1634 43.0375 39.2529 43.0176 39.2728V39.2529H43.0202Z" fill="#32351B"/>
<path d="M43.281 39.4021H43.2302C43.2302 39.4021 43.21 39.4021 43.21 39.4123C43.21 39.4225 43.21 39.4225 43.2201 39.4327C43.2302 39.4429 43.2404 39.4429 43.2404 39.4531C43.2404 39.4531 43.2607 39.4429 43.2607 39.4327C43.2607 39.4225 43.2607 39.4123 43.2708 39.4123L43.281 39.4021Z" fill="#32351B"/>
<path d="M43.3596 39.3624C43.3396 39.3425 43.3096 39.3624 43.2896 39.3624C43.2996 39.3823 43.3196 39.4022 43.3396 39.4121C43.3396 39.4121 43.3296 39.432 43.3196 39.432H43.2996H43.2896C43.2796 39.432 43.2896 39.4519 43.2896 39.4618C43.2896 39.4718 43.3096 39.5414 43.3396 39.5315L43.3496 39.5215C43.3596 39.5116 43.3496 39.5116 43.3496 39.5016V39.4817L43.3396 39.4718C43.3596 39.4618 43.3896 39.4426 43.3996 39.4121H43.3796V39.3922L43.3596 39.3723V39.3624Z" fill="#32351B"/>
<path d="M43.2098 39.6118C43.2198 39.6118 43.2398 39.6118 43.2498 39.5919C43.2598 39.5919 43.2698 39.572 43.2698 39.5627C43.2698 39.5428 43.2698 39.5229 43.2498 39.5229C43.2298 39.5229 43.2498 39.5229 43.2498 39.5129C43.2498 39.5129 43.2298 39.5129 43.2204 39.5328V39.5826C43.2204 39.6025 43.2004 39.6124 43.1904 39.6224H43.2004L43.2104 39.6124L43.2098 39.6118Z" fill="#32351B"/>
<path d="M43.1708 39.5912L43.1908 39.5713C43.2008 39.5613 43.1908 39.5514 43.1908 39.5414V39.4618C43.1708 39.4817 43.1508 39.4817 43.1308 39.4618C43.1108 39.4817 43.1008 39.5116 43.0908 39.5414H43.1208V39.5613C43.1208 39.5713 43.1108 39.5905 43.1008 39.6011C43.1008 39.621 43.0808 39.6509 43.1008 39.6708C43.1208 39.6907 43.1308 39.6708 43.1408 39.6608V39.631C43.1408 39.621 43.1708 39.6018 43.1708 39.6018V39.5918V39.5912Z" fill="#32351B"/>
<path d="M43.0805 39.3623H43.0405C43.0205 39.3822 43.0405 39.422 43.0605 39.4426C43.0605 39.4426 43.0805 39.4326 43.0805 39.4227C43.0805 39.4227 43.0805 39.4028 43.0905 39.3935V39.3736L43.0805 39.3636V39.3623Z" fill="#32351B"/>
<path d="M42.9707 39.5234L42.991 39.503C43.0011 39.4928 42.991 39.4826 42.991 39.4724V39.5132H42.9707V39.5234Z" fill="#32351B"/>
<path d="M42.932 39.5315C42.932 39.5315 42.932 39.5514 42.922 39.5613H42.902C42.892 39.5613 42.902 39.5613 42.902 39.5713C42.892 39.5912 42.882 39.621 42.8627 39.6409L42.8327 39.6708C42.8327 39.6708 42.8127 39.6907 42.8127 39.7006C42.7927 39.7298 42.7827 39.7703 42.7627 39.8001C42.7827 39.7802 42.8027 39.761 42.8127 39.7305C42.8127 39.7106 42.8327 39.7013 42.842 39.6807C42.852 39.6708 42.872 39.6516 42.882 39.6409C42.902 39.631 42.912 39.6118 42.932 39.6018H42.952C42.952 39.6018 42.952 39.5919 42.962 39.5819C42.962 39.562 42.962 39.5322 42.942 39.5222L42.932 39.5322V39.5315Z" fill="#32351B"/>
<path d="M42.6619 40.5085L42.6718 40.4985C42.6818 40.4786 42.6917 40.4687 42.7017 40.4488V40.3294C42.7515 40.3294 42.8112 40.3294 42.8211 40.2691C42.8012 40.2691 42.7913 40.2399 42.7913 40.2193C42.7913 40.1988 42.7913 40.1702 42.7813 40.1497C42.7714 40.1298 42.7813 40.0999 42.7813 40.09C42.7813 40.08 42.8211 40.0701 42.8311 40.0601H42.841C42.841 40.0502 42.8019 40.0502 42.8019 40.0502C42.8019 40.0502 42.8218 40.0303 42.8218 40.0104C42.8218 39.9905 42.8218 39.9713 42.8019 39.9606C42.7919 39.9507 42.772 39.9407 42.7621 39.9315L42.7422 39.9016C42.713 39.9215 42.7322 39.9514 42.713 39.9819C42.6931 40.0111 42.6532 40.0913 42.6327 40.0515C42.6128 40.0714 42.5935 40.1013 42.5829 40.1218C42.563 40.1417 42.5331 40.151 42.5132 40.1716V40.1517C42.5132 40.1517 42.5033 40.1616 42.4933 40.1716V40.2007C42.4933 40.2306 42.4933 40.2505 42.4734 40.281H42.4336C42.4236 40.281 42.4137 40.3102 42.3945 40.3102C42.3752 40.3102 42.3546 40.3002 42.3447 40.3301C42.3447 40.3301 42.3646 40.34 42.3646 40.3593C42.3646 40.3692 42.3646 40.3792 42.3546 40.3891H42.3049C42.2949 40.3891 42.275 40.3991 42.2651 40.4183C42.2551 40.4382 42.2451 40.468 42.2551 40.4886V40.6876C42.2551 40.6876 42.2551 40.6975 42.275 40.7075C42.3148 40.7274 42.2949 40.7672 42.285 40.797H42.3142C42.3142 40.8169 42.3142 40.8262 42.3241 40.8361C42.344 40.8162 42.3639 40.797 42.3739 40.7764V40.8063C42.4037 40.7864 42.4236 40.7566 42.4635 40.7566H42.5132C42.5331 40.7566 42.553 40.7665 42.5431 40.7963C42.5431 40.7963 42.6128 40.7161 42.6426 40.7466C42.6426 40.7466 42.6625 40.6862 42.6625 40.6571C42.6625 40.6372 42.6625 40.6173 42.6824 40.5974C42.6824 40.5874 42.6824 40.5675 42.6725 40.5576C42.6625 40.5476 42.6725 40.5377 42.7024 40.5377L42.6625 40.5078L42.6619 40.5085Z" fill="#32351B"/>
<path d="M43.3597 39.5614L43.3497 39.5713V39.5912C43.3497 39.5912 43.3497 39.6111 43.3398 39.6111C43.3398 39.6111 43.3298 39.6211 43.3198 39.6211H43.2999L43.2707 39.641L43.2309 39.6609C43.2011 39.7007 43.1314 39.7106 43.1009 39.7604C43.1009 39.7604 43.081 39.7604 43.0717 39.7803C43.0717 39.7803 43.0617 39.8002 43.0518 39.8101V39.8897C43.0717 39.8897 43.0816 39.8698 43.0816 39.8499C43.0816 39.83 43.1015 39.8108 43.1108 39.8002C43.1108 39.8002 43.1307 39.7803 43.1407 39.7803C43.1407 39.8002 43.1705 39.7902 43.1805 39.7803C43.1805 39.7703 43.2004 39.7604 43.2097 39.7504H43.2396C43.2396 39.7504 43.2396 39.7703 43.2196 39.7703C43.1997 39.7703 43.2097 39.7902 43.2196 39.8101C43.2296 39.83 43.2396 39.8393 43.2588 39.8393C43.2887 39.8592 43.3192 39.8691 43.3583 39.8791C43.3882 39.8791 43.3981 39.8691 43.3981 39.8393C43.3981 39.8094 43.3782 39.7995 43.3782 39.7796C43.3782 39.7597 43.3782 39.7597 43.3782 39.7696H43.3981C43.4678 39.7895 43.4479 39.6702 43.438 39.6397C43.438 39.6105 43.4181 39.5601 43.3882 39.58L43.3583 39.5601L43.3597 39.5614Z" fill="#32351B"/>
<path d="M42.7114 41.1266C42.7314 41.1266 42.7514 41.1266 42.7714 41.1166C42.7814 41.1166 42.7914 41.1067 42.8114 41.1067H42.8314H42.8021C42.7621 41.1067 42.7214 41.1067 42.6914 41.1365V41.1564H42.7114V41.1273V41.1266Z" fill="#32351B"/>
<path d="M43.0614 41.0464C43.0813 41.0464 43.0906 41.0464 43.1105 41.0265C43.1238 41.0132 43.137 41.0033 43.1503 40.9966C43.1702 40.9966 43.1802 40.9867 43.2001 40.9767H43.22C43.22 40.9767 43.2299 40.9767 43.2399 40.9668H43.1105C43.0906 40.9867 43.0806 40.996 43.0707 41.0066C43.0408 41.0265 43.0003 41.0265 42.9612 41.0165H42.8909C42.8809 41.0165 42.871 41.0265 42.8617 41.0364V41.0563C42.8517 41.0563 42.9008 41.0364 42.9313 41.0563C42.9712 41.0563 43.0116 41.0563 43.0408 41.0464H43.0607H43.0614Z" fill="#32351B"/>
<path d="M42.791 41.1863H42.891C42.911 41.1863 42.9617 41.1863 42.9717 41.1664C42.9817 41.1465 42.9217 41.1266 42.901 41.1266H42.8517V41.1365C42.8317 41.1365 42.8117 41.1564 42.8017 41.1763V41.1962L42.7917 41.1863H42.791Z" fill="#32351B"/>
<path d="M43.2604 40.4089H43.2404C43.2204 40.4089 43.1904 40.4189 43.1904 40.4388C43.1904 40.4587 43.2404 40.4587 43.2504 40.4587H43.2904C43.3004 40.4587 43.3304 40.4587 43.3304 40.4388C43.3304 40.4189 43.2904 40.4089 43.2598 40.4089H43.2604Z" fill="#32351B"/>
<path d="M43.5104 40.3791C43.5304 40.3791 43.5404 40.3791 43.5504 40.3691C43.5504 40.3691 43.5304 40.34 43.5104 40.3492C43.4811 40.3492 43.4604 40.3691 43.4404 40.389H43.5104V40.3791Z" fill="#32351B"/>
<path d="M43.4491 40.3089H43.5391V40.3288H43.5591V40.3089C43.5591 40.3089 43.5591 40.2989 43.5491 40.289C43.5391 40.289 43.5291 40.289 43.5191 40.2691C43.5191 40.2492 43.5391 40.2492 43.5491 40.2492C43.5491 40.2492 43.5785 40.2492 43.5785 40.2293C43.5785 40.2094 43.5585 40.2094 43.5491 40.2094C43.5398 40.2094 43.5891 40.2094 43.5991 40.1895V40.1596C43.5991 40.1596 43.5891 40.1397 43.5791 40.1397L43.5498 40.1689V40.1298C43.5698 40.0999 43.5998 40.09 43.6198 40.0595C43.5698 40.0595 43.5398 40.0893 43.5198 40.1298C43.4905 40.1795 43.4805 40.2293 43.4905 40.2797H43.4705C43.4605 40.2797 43.4705 40.2797 43.4605 40.2996C43.4311 40.2996 43.4311 40.3095 43.4605 40.3095H43.4505L43.4491 40.3089Z" fill="#32351B"/>
<path d="M43.3596 40.5184L43.3496 40.5283H43.3203C43.3303 40.5383 43.3496 40.5283 43.3696 40.5383C43.3896 40.5482 43.4196 40.5184 43.4303 40.4985C43.4403 40.4786 43.4303 40.4686 43.4103 40.4686C43.4103 40.4686 43.3703 40.4686 43.3603 40.4885V40.5177L43.3596 40.5184Z" fill="#32351B"/>
<path d="M43.4795 40.4885V40.5177H43.5087V40.5476C43.5286 40.5476 43.5585 40.5476 43.5784 40.5277C43.5983 40.5177 43.6182 40.468 43.6487 40.4985C43.6792 40.529 43.6885 40.5084 43.7184 40.5184C43.7482 40.5283 43.7582 40.5383 43.7887 40.5283C43.7887 40.5084 43.7688 40.4992 43.7589 40.4892C43.7489 40.4892 43.719 40.4892 43.719 40.4594C43.719 40.4295 43.6693 40.4395 43.6494 40.4395H43.4894V40.4786L43.4795 40.4885Z" fill="#32351B"/>
<path d="M43.679 40.399C43.699 40.399 43.729 40.409 43.7397 40.399C43.7497 40.3891 43.7397 40.3792 43.7397 40.3692C43.7397 40.3692 43.7397 40.3593 43.7197 40.3493C43.6997 40.3394 43.7097 40.3493 43.6997 40.3394H43.6897C43.6797 40.3394 43.6597 40.3493 43.6597 40.3685C43.6197 40.3785 43.6597 40.3984 43.6797 40.3984L43.679 40.399Z" fill="#32351B"/>
<path d="M43.8493 40.8083H43.8393C43.8193 40.8282 43.8 40.8375 43.7793 40.8481C43.7693 40.8481 43.7693 40.868 43.7593 40.8872C43.7593 40.8972 43.7493 40.9171 43.7593 40.937C43.7593 40.937 43.8093 40.9078 43.8293 40.8872C43.8493 40.8673 43.8593 40.8481 43.8693 40.8176L43.8493 40.8076V40.8083Z" fill="#32351B"/>
<path d="M43.959 40.6583V40.6384H43.939C43.929 40.6384 43.919 40.6484 43.9096 40.6583C43.9096 40.6583 43.8896 40.6583 43.8896 40.6782C43.8896 40.6981 43.9196 40.7081 43.9396 40.6981H43.9496V40.6683L43.9596 40.6583H43.959Z" fill="#32351B"/>
<path d="M44.0077 40.7678C44.0077 40.7877 44.0077 40.8076 44.0371 40.8076C44.0471 40.8076 44.0571 40.8076 44.0771 40.7877C44.0771 40.7877 44.0971 40.7678 44.1071 40.7585C44.1071 40.7386 44.1364 40.6988 44.1071 40.6782C44.0771 40.6583 44.0871 40.6583 44.0971 40.649H44.0371C43.9977 40.649 44.0171 40.7087 44.0171 40.7286C44.0171 40.7485 44.0071 40.7485 43.9971 40.7585V40.7877L44.0071 40.7678H44.0077Z" fill="#32351B"/>
<path d="M45.2939 40.6285C45.3437 40.6285 45.3742 40.6584 45.424 40.6683H45.4937C45.5136 40.6882 45.5235 40.6882 45.5435 40.6783C45.5534 40.6683 45.5733 40.6584 45.5833 40.6392C45.5932 40.6292 45.6231 40.6392 45.633 40.6292C45.633 40.6292 45.643 40.6292 45.6529 40.6193V40.5596C45.6728 40.5496 45.6828 40.5297 45.6728 40.5098C45.6728 40.5098 45.6131 40.4899 45.5926 40.5098V40.5695H45.5634C45.5634 40.5695 45.5534 40.5894 45.5435 40.5994C45.5143 40.5795 45.4738 40.5994 45.4439 40.5994C45.4141 40.5994 45.3643 40.5795 45.3344 40.5994H45.3145C45.3145 40.5994 45.2946 40.6385 45.3046 40.6385L45.2946 40.6285H45.2939Z" fill="#32351B"/>
<path d="M45.4344 40.3493C45.4344 40.3493 45.4444 40.3692 45.4544 40.3692C45.4643 40.3692 45.4743 40.3692 45.4842 40.3792H45.5041C45.524 40.3792 45.534 40.3792 45.5439 40.3991C45.5638 40.409 45.5838 40.419 45.5937 40.4389L45.6435 40.478C45.6634 40.4879 45.6932 40.5078 45.6833 40.5383C45.753 40.5383 45.7125 40.4581 45.6833 40.4389H45.6534C45.6435 40.4389 45.6335 40.419 45.6335 40.409C45.6335 40.3991 45.6037 40.3891 45.5837 40.3798C45.5638 40.3699 45.534 40.35 45.5141 40.34H45.4338C45.4338 40.3301 45.4238 40.3301 45.4238 40.3301V40.35H45.4338L45.4344 40.3493Z" fill="#32351B"/>
<path d="M45.9834 40.738V40.7088C45.9834 40.6988 45.9734 40.6889 45.9634 40.6789L45.9434 40.669L45.9334 40.659C45.9334 40.6491 45.9134 40.6292 45.9134 40.6192C45.9134 40.6093 45.884 40.5901 45.874 40.6093C45.864 40.6292 45.874 40.6491 45.894 40.659C45.914 40.669 45.914 40.6789 45.914 40.6988V40.738C45.914 40.7479 45.914 40.7579 45.934 40.7678C45.934 40.7678 45.954 40.7877 45.9634 40.7877H46.0034V40.7585L45.9834 40.7386V40.738Z" fill="#32351B"/>
<path d="M46.0027 40.7479C46.0027 40.7678 46.0427 40.7678 46.0527 40.7771H46.0627V40.807C46.0627 40.8136 46.0661 40.8169 46.0727 40.8169H46.1027C46.1027 40.8169 46.1127 40.8169 46.1027 40.807L46.0827 40.7871C46.0827 40.7771 46.0827 40.7672 46.0727 40.7479C46.0527 40.728 46.0434 40.7181 46.0227 40.7081H45.9834C45.9934 40.728 46.0034 40.7479 46.0127 40.7479H46.0027Z" fill="#32351B"/>
<path d="M45.5746 41.0072C45.5746 41.0072 45.5746 40.9972 45.5646 40.9873C45.5746 40.9873 45.5546 40.9674 45.5446 40.9581H45.5246C45.5246 40.9581 45.5046 40.9581 45.5046 40.9382C45.4946 40.9382 45.4753 40.9382 45.4653 40.9183C45.4553 40.8984 45.4453 40.9183 45.4553 40.9283C45.4653 40.9482 45.4853 40.9481 45.5053 40.9581C45.5053 40.9581 45.5153 40.978 45.5253 40.978L45.5653 40.9979H45.5853L45.5753 41.0078L45.5746 41.0072Z" fill="#32351B"/>
<path d="M45.6949 40.9575H45.705H45.6442C45.6543 40.9575 45.6442 40.9677 45.6644 40.9677H45.705L45.6949 40.9575Z" fill="#32351B"/>
<path d="M45.7936 41.1369H45.7636C45.7636 41.1369 45.7636 41.1168 45.7436 41.1168C45.7336 41.1168 45.7136 41.1169 45.7036 41.1068C45.6936 41.0968 45.6836 41.1068 45.6936 41.1168C45.7036 41.1269 45.7336 41.1168 45.7336 41.1463C45.7336 41.1757 45.7336 41.1563 45.7436 41.1563H45.7936V41.1363V41.1369Z" fill="#32351B"/>
<path d="M46.2519 40.8971C46.2519 40.907 46.2719 40.907 46.2812 40.917C46.2912 40.9269 46.3012 40.917 46.3012 40.907C46.3012 40.8971 46.3012 40.8871 46.2812 40.8871V40.8672H46.2519C46.2519 40.8473 46.2319 40.8473 46.2119 40.8473C46.2119 40.8473 46.2019 40.8474 46.1919 40.8374H46.1719V40.8573H46.1919V40.8672H46.2212L46.2312 40.8772V40.8871L46.2512 40.8971H46.2519Z" fill="#32351B"/>
<path d="M46.3024 41.0271H46.3524C46.3524 41.0371 46.3624 41.057 46.3818 41.057V41.0371C46.3818 41.0271 46.3618 41.0079 46.3418 40.9873C46.3418 40.9774 46.3218 40.9674 46.3124 40.9581H46.2724L46.2324 40.9382L46.2524 40.9581V40.9681C46.2524 40.9681 46.2524 40.988 46.2724 40.988L46.3024 41.0278V41.0271Z" fill="#32351B"/>
<path d="M46.3918 40.9774C46.3918 40.9873 46.3918 40.9973 46.4118 41.0072C46.4318 41.0172 46.4318 41.0271 46.4411 41.0271H46.4511C46.4511 41.0271 46.4411 41.0172 46.4311 41.0072V40.9774C46.4311 40.9774 46.4018 40.9376 46.3911 40.9177C46.3911 40.8978 46.3711 40.9077 46.3618 40.9177C46.3618 40.9077 46.3518 40.8878 46.3418 40.8679V40.9376L46.3618 40.9575L46.3911 40.9774H46.3918Z" fill="#32351B"/>
<path d="M46.4305 41.0868C46.4205 41.0868 46.4105 41.1069 46.4305 41.1069H46.4705V41.1269H46.5005C46.5005 41.1269 46.5105 41.1269 46.5105 41.1169C46.5105 41.0968 46.4705 41.0868 46.4505 41.0868V41.1069L46.4305 41.0868Z" fill="#32351B"/>
<path d="M46.6006 42.0638H46.6306V42.1135C46.6606 42.1334 46.6906 42.1427 46.6906 42.1732V42.1832C46.6906 42.2031 46.7106 42.213 46.7206 42.223H46.7606V42.1832L46.7406 42.1434L46.7206 42.1142V42.0844C46.7206 42.0844 46.7006 42.0552 46.6906 42.0446V42.0154C46.6906 41.9955 46.6613 42.0054 46.6613 42.0154V41.9656H46.6413C46.6313 41.9656 46.6413 41.9656 46.6413 41.9756C46.6313 41.9557 46.6213 41.9358 46.6213 41.9159V41.9855C46.6213 42.0154 46.6313 42.0353 46.6413 42.0658H46.6013L46.6006 42.0638Z" fill="#32351B"/>
<path d="M46.8302 41.6049C46.8302 41.6049 46.8502 41.6248 46.8502 41.6347H46.8402C46.8402 41.6248 46.8302 41.6248 46.8302 41.6248V41.6745V41.6148C46.8302 41.5949 46.7802 41.575 46.7902 41.5651H46.7802V41.5054V41.5253C46.7602 41.5253 46.7602 41.5452 46.7702 41.5644C46.7702 41.5843 46.7802 41.5942 46.7902 41.6141L46.8302 41.6042V41.6049Z" fill="#32351B"/>
<path d="M46.9504 41.7558V41.7252C46.9504 41.7252 46.9503 41.7048 46.9301 41.715L46.9098 41.7354C46.8996 41.7456 46.9098 41.7558 46.9098 41.7558C46.9098 41.766 46.9402 41.7558 46.9402 41.7558H46.9504Z" fill="#32351B"/>
<path d="M46.9102 41.8044V41.8248C46.9102 41.8248 46.9102 41.8452 46.9304 41.835V41.8146L46.9102 41.8044Z" fill="#32351B"/>
<path d="M46.9492 41.9142V41.9347H46.9595V41.9142C46.9595 41.8936 46.9492 41.9142 46.9492 41.9142Z" fill="#32351B"/>
<path d="M47.5979 41.9238L47.5879 41.9039C47.5679 41.9039 47.5679 41.9331 47.5586 41.9537C47.5586 41.9935 47.5786 42.0034 47.6086 42.0233H47.6286V41.9636L47.5993 41.9238H47.5979Z" fill="#32351B"/>
<path d="M47.6587 41.7947L47.6486 41.7846H47.6086L47.5986 41.7947V41.8341H47.6887C47.7087 41.8141 47.6887 41.7846 47.6593 41.7739V41.794L47.6587 41.7947Z" fill="#32351B"/>
<path d="M47.5586 42.0343H47.5381H47.5689C47.5586 42.0343 47.5689 42.0137 47.5689 42.0042L47.5586 42.0343Z" fill="#32351B"/>
<path d="M46.1327 40.8872C46.1327 40.8673 46.1227 40.858 46.1034 40.848H45.9834V40.8679H46.0227V40.8779H46.0327C46.0527 40.8978 46.0827 40.9077 46.1127 40.9177H46.1527V40.8978C46.1527 40.8978 46.1527 40.8779 46.1327 40.8779C46.1127 40.8779 46.1127 40.8779 46.1127 40.8679L46.1327 40.8878V40.8872Z" fill="#32351B"/>
</svg>
