<?xml version="1.0" encoding="UTF-8"?>
<svg id="Layer_1" xmlns="http://www.w3.org/2000/svg" version="1.1" viewBox="0 0 1080 491.41">
  <!-- Generator: Adobe Illustrator 30.3.0, SVG Export Plug-In . SVG Version: 2.1.3 Build 182)  -->
  <defs>
    <style>
      .st0 {
        font-family: Poppins-Medium, Poppins;
        font-size: 77px;
        font-weight: 500;
      }

      .st0, .st1 {
        fill: #23085a;
      }
    </style>
  </defs>
  <text class="st0" transform="translate(73.28 439.31)"><tspan x="0" y="0">Certiﬁcate code : 40314</tspan></text>
  <g>
    <path class="st1" d="M454.24,138.15c-2.76-1.18-6.17-1.91-12.94-1.91h-24.64v31.33h23.26c7.02,0,11.17-.85,14.45-2.42,5.51-2.77,8.27-7.62,8.27-14.13,0-5.85-3.09-10.51-8.41-12.94v.06ZM448.2,91.18c-2.63-1.18-5.71-1.91-10.71-1.91h-20.83v29.63h19.64c6.18,0,9.98-1.05,12.74-2.63,4.47-2.56,6.71-6.9,6.71-12.42s-2.56-10.32-7.56-12.74M397.22,185.18v-113.45h41.65c8.94,0,14.78,1.38,19.64,3.62,11.56,5.51,16.68,16.03,16.68,25.69,0,10.83-4.47,18.26-13.6,23.78v.32c13.07,2.89,21.02,12.02,21.02,25.81,0,15.3-9.26,27.06-25.16,31.86-5.71,1.71-11.89,2.43-21.68,2.43h-38.56"/>
    <rect class="st1" x="596.19" y="71.74" width="19.44" height="113.51"/>
    <rect class="st1" x="737.42" y="71.74" width="19.44" height="113.51"/>
    <path class="st1" d="M819.73,70.68c12.21,0,24.63,2.95,31.53,6.38l-.33,18.59c-9.85-4.79-19.84-7.95-31.73-7.95-10.64,0-19.77,3.28-19.77,12.21,0,23.25,58.4,13.92,58.4,52.36,0,21.15-17.93,34.61-43.95,34.61-17.74,0-29.95-5-38.36-10.11l8.08-15.83c6.9,4.33,17.93,8.93,31.01,8.93,11.76,0,22.59-4.47,22.59-14.78,0-24.31-57.87-13.6-57.87-52.35,0-20.7,16.49-32.06,40.46-32.06h-.06Z"/>
    <polygon class="st1" points="949.93 185.18 949.93 136.3 894.82 136.3 894.82 185.18 875.37 185.18 875.37 71.73 894.82 71.73 894.82 118.18 949.93 118.18 949.93 71.73 969.36 71.73 969.36 185.18 949.93 185.18"/>
    <path class="st1" d="M440.18,205.14c12.42,0,21.87,2.43,31.53,6.7l-5.85,16.55c-5.51-2.56-12.74-5.64-23.58-5.64-21.54,0-34.95,18.26-34.95,40.46s12.55,40.66,34.95,40.66c10.84,0,18.07-3.08,23.58-5.64l5.85,16.55c-9.66,4.27-19.12,6.7-31.53,6.7-33.96,0-53.41-23.71-53.41-57.87,0-31.87,19.45-58.4,53.41-58.4v-.06Z"/>
    <path class="st1" d="M865.91,205.14c12.42,0,21.87,2.43,31.47,6.7l-5.85,16.55c-5.52-2.56-12.75-5.64-23.58-5.64-21.55,0-34.95,18.26-34.95,40.46s12.55,40.66,34.95,40.66c10.83,0,18.06-3.08,23.58-5.64l5.85,16.55c-9.66,4.27-19.12,6.7-31.47,6.7-33.96,0-53.41-23.71-53.41-57.87,0-31.87,19.45-58.4,53.41-58.4v-.06Z"/>
    <path class="st1" d="M562.43,263.14c0-24.76-14.12-40.59-33.24-40.59s-33.24,15.83-33.24,40.79,14.13,40.66,33.24,40.66,33.24-15.83,33.24-40.79v-.07ZM582.93,262.82c0,34.1-21.68,58.53-53.73,58.53s-53.74-23.58-53.74-57.68,21.68-58.52,53.74-58.52,53.73,23.58,53.73,57.67"/>
    <path class="st1" d="M596.06,276.94v-70.75h19.44v71.47c0,18.92,10.19,26.01,26.34,26.01s26.34-7.09,26.34-26.01v-71.47h19.45v70.75c0,30.81-17.54,44.4-46.11,44.4s-45.46-13.59-45.46-44.4Z"/>
    <path class="st1" d="M724.29,237h-.33c.33,3.75.53,9.79.53,15.17v67.46h-19.44v-113.45h21.02l52.67,77.31h.33c-.33-3.8-.53-9.78-.53-15.17v-62.14h19.45v113.45h-17.21l-56.5-82.64Z"/>
    <rect class="st1" x="912.74" y="206.13" width="19.44" height="113.45"/>
    <polygon class="st1" points="949.93 319.64 949.93 206.13 969.36 206.13 969.36 302.03 1013.78 302.03 1013.78 319.64 949.93 319.64"/>
    <polygon class="st1" points="722.58 71.73 630.49 71.73 630.49 89.47 666.74 89.47 666.74 185.18 686.25 185.18 686.25 89.47 722.58 89.47 722.58 71.73"/>
    <path class="st1" d="M535.56,89.27h-20.16v34.42h19.25c13.93,0,20.49-7.23,20.49-17.54,0-9.33-6.04-16.88-19.64-16.88h.06ZM561.18,185.18c-16.49-34.23-20.83-43.88-27.72-43.88h-18.06v43.88h-19.45v-113.45h38.43c29.24,0,40.47,15.51,40.47,32.72,0,15.17-8.81,25.29-21.02,29.1v.19c5.19,2.96,10.64,13.6,29.63,51.5h-22.21l-.06-.06Z"/>
    <path class="st1" d="M340.08,123.63c0,35.86-29.03,64.9-64.9,64.9s-64.91-29.03-64.91-64.9,29.11-64.9,64.91-64.9,64.9,29.03,64.9,64.9"/>
    <path class="st1" d="M131.12,58.73c35.84,0,64.9,29.05,64.9,64.9s-29.05,64.91-64.9,64.91-64.9-29.06-64.9-64.91,29.05-64.9,64.9-64.9"/>
    <path class="st1" d="M340.08,267.68c0,35.86-29.03,64.9-64.9,64.9s-64.91-29.03-64.91-64.9,29.03-64.9,64.91-64.9,64.9,29.03,64.9,64.9"/>
    <path class="st1" d="M105.22,208.16c32.86-14.31,71.11.72,85.42,33.58,14.31,32.87-.72,71.11-33.58,85.42-32.87,14.31-71.11-.72-85.42-33.58-14.31-32.87.72-71.11,33.58-85.42"/>
  </g>
</svg>