<svg xmlns="http://www.w3.org/2000/svg" width="55" height="45" viewBox="0 0 55 45" fill="none"><path d="M52.7497 35.0385V19.511L53.1928 19.253C54.1333 18.7071 54.6942 17.733 54.6942 16.6467C54.6942 15.5604 54.1333 14.5845 53.1928 14.0385L30.4634 0.835034C28.5508 -0.279279 26.1707 -0.27741 24.2581 0.835034L1.52681 14.0404C0.58824 14.5863 0.0273438 15.5604 0.0273438 16.6467C0.0273438 17.733 0.58824 18.7071 1.52681 19.2549L8.41835 23.2597V32.5687C8.41835 34.73 9.58128 36.7399 11.4509 37.8187L20.9376 43.2874C22.9175 44.4279 25.1387 45 27.3598 45C29.581 45 31.8002 44.4298 33.7821 43.2874L43.2668 37.8187C45.1384 36.7417 46.3013 34.73 46.3013 32.5687V23.2578L49.3843 21.4667V35.0385C48.5935 35.5769 48.0737 36.4837 48.0737 37.5139C48.0737 39.1667 49.4143 40.5072 51.067 40.5072C52.7198 40.5072 54.0603 39.1667 54.0603 37.5139C54.0603 36.4856 53.5406 35.5788 52.7497 35.0385ZM42.9378 32.5668H42.9359C42.9359 33.5278 42.4217 34.4215 41.5879 34.9001L32.1031 40.3689C29.179 42.0534 25.5425 42.0534 22.6202 40.3689L13.1336 34.9001C12.3016 34.4215 11.7856 33.5278 11.7856 32.5668V25.2135L24.2581 32.4602C25.2153 33.0155 26.2885 33.2941 27.3617 33.2941C28.4349 33.2941 29.508 33.0174 30.4653 32.4602L42.9378 25.2135V32.5668ZM28.7733 29.551C27.902 30.0577 26.8195 30.0577 25.9482 29.551L3.73861 16.6467L25.9464 3.74235C26.8176 3.23567 27.9001 3.23567 28.7714 3.74235L50.981 16.6448L28.7733 29.551Z" fill="#5DC2D3"></path></svg>