<svg xmlns="http://www.w3.org/2000/svg" width="707" height="707" viewBox="0 0 707 707" fill="none"><path fill-rule="evenodd" clip-rule="evenodd" d="M509.823 386.363C474.921 386.363 446.38 357.822 446.38 322.92C446.38 287.856 474.921 259.315 509.823 259.315C544.887 259.315 573.428 287.856 573.428 322.92C573.428 357.822 544.887 386.363 509.823 386.363ZM694.768 633.283H12.2318C5.70818 633.283 0.326172 627.901 0.326172 621.377V167.331C0.326172 160.645 5.70818 155.263 12.2318 155.263H273.504V85.6228C273.504 78.9361 278.886 73.7172 285.573 73.7172H374.62C381.307 73.7172 386.689 78.9361 386.689 85.6228V155.263H694.768C701.292 155.263 706.674 160.645 706.674 167.331V621.377C706.674 628.064 701.292 633.283 694.768 633.283ZM273.504 179.4H24.3006V547.823H378.045V485.685C378.045 440.183 415.067 403.161 460.569 403.161H559.239C604.742 403.161 641.764 440.183 641.764 485.685V547.823H682.699V179.4H386.689V228.328C401.204 228.328 420.612 224.903 420.612 240.233C420.612 246.92 415.23 252.302 408.543 252.302H251.65C235.83 252.302 235.83 228.328 251.65 228.328H273.504V179.4ZM24.3006 571.797V609.308H682.699V571.797H24.3006ZM362.715 228.328V97.6916H297.641V228.328H362.715ZM310.362 325.693H77.3052C61.4853 325.693 61.4853 301.719 77.3052 301.719H310.362C326.182 301.719 326.182 325.693 310.362 325.693ZM310.362 389.135H77.3052C61.4853 389.135 61.4853 364.998 77.3052 364.998H310.362C326.182 364.998 326.182 389.135 310.362 389.135ZM310.362 452.415H77.3052C61.4853 452.415 61.4853 428.44 77.3052 428.44H310.362C326.182 428.44 326.182 452.415 310.362 452.415ZM310.362 515.694H77.3052C61.4853 515.694 61.4853 491.72 77.3052 491.72H310.362C326.182 491.72 326.182 515.694 310.362 515.694ZM402.02 544.072H617.789V485.685C617.789 453.393 591.531 427.136 559.239 427.136H460.569C428.277 427.136 402.02 453.393 402.02 485.685V544.072ZM509.823 283.452C488.132 283.452 470.355 301.066 470.355 322.92C470.355 344.612 488.132 362.225 509.823 362.225C531.677 362.225 549.291 344.612 549.291 322.92C549.291 301.066 531.677 283.452 509.823 283.452Z" fill="#5DC2D3"></path></svg>