<svg xmlns="http://www.w3.org/2000/svg" width="52" height="45" viewBox="0 0 52 45" fill="none"><path d="M49.3977 9.5258C48.6012 8.70884 47.65 8.05853 46.5997 7.61276C45.5494 7.16699 44.4208 6.93468 43.2798 6.92934H37.4215L35.3931 2.87236C34.9653 2.00761 34.3037 1.28009 33.4833 0.772375C32.6629 0.264662 31.7166 -0.00291196 30.7519 2.39023e-05H21.1774C20.2126 -0.00291196 19.2664 0.264662 18.446 0.772375C17.6256 1.28009 16.964 2.00761 16.5362 2.87236L14.5077 6.92934H8.64947C6.35549 6.92934 4.15546 7.84062 2.53337 9.46271C0.911281 11.0848 0 13.2848 0 15.5788L0 36.3505C0 38.6445 0.911281 40.8445 2.53337 42.4666C4.15546 44.0887 6.35549 45 8.64947 45H43.2798C45.5738 45 47.7738 44.0887 49.3959 42.4666C51.018 40.8445 51.9293 38.6445 51.9293 36.3505V15.5788C51.9184 13.3059 51.0083 11.1297 49.3977 9.5258ZM19.6358 4.43024C19.7838 4.13009 20.0162 3.87963 20.3044 3.70957C20.5927 3.53951 20.9242 3.45722 21.2586 3.4728H30.833C31.1673 3.45722 31.4989 3.53951 31.7872 3.70957C32.0754 3.87963 32.3078 4.13009 32.4558 4.43024L33.7054 6.92934H18.3862L19.6358 4.43024ZM5.03065 11.9113C5.51035 11.4267 6.08162 11.0422 6.71124 10.7803C7.34085 10.5185 8.01625 10.3844 8.69816 10.3859H43.2798C44.6571 10.3859 45.9779 10.933 46.9518 11.9069C47.9256 12.8807 48.4727 14.2016 48.4727 15.5788V20.7717C48.4685 21.6872 48.1029 22.5639 47.4556 23.2112C46.8083 23.8585 45.9316 24.224 45.0162 24.2283H6.92931C6.0139 24.224 5.13719 23.8585 4.48988 23.2112C3.84258 22.5639 3.47704 21.6872 3.47277 20.7717V15.5788C3.46914 14.898 3.60067 14.2233 3.85974 13.5938C4.1188 12.9642 4.50025 12.3923 4.98197 11.9113H5.03065ZM46.9473 40.0343C46.4676 40.5189 45.8964 40.9034 45.2667 41.1652C44.6371 41.4271 43.9617 41.5612 43.2798 41.5597H8.64947C7.27222 41.5597 5.95138 41.0126 4.97752 40.0387C4.00365 39.0648 3.45654 37.744 3.45654 36.3668V26.7436C4.5032 27.3642 5.69631 27.6947 6.91309 27.7011H45C46.2168 27.6947 47.4099 27.3642 48.4565 26.7436V36.3668C48.4601 37.0475 48.3286 37.7222 48.0696 38.3518C47.8105 38.9813 47.429 39.5532 46.9473 40.0343Z" fill="#5DC2D3"></path></svg>