<svg xmlns="http://www.w3.org/2000/svg" width="825" height="825" viewBox="0 0 825 825" fill="none"><path d="M784.996 106.316L659.093 103.335C655.754 103.256 652.52 104.507 650.103 106.812C647.686 109.117 646.284 112.288 646.205 115.627L645.907 128.217L625.939 127.745L580.372 79.9675C578.067 77.5503 574.897 76.1476 571.558 76.0678L508.607 74.5773L509.203 49.3968C509.282 46.0577 508.032 42.8239 505.726 40.4069C503.421 37.9898 500.25 36.5876 496.911 36.5085L333.238 32.6331C329.899 32.554 326.665 33.8047 324.248 36.1099C321.831 38.4151 320.429 41.5861 320.35 44.9252L318.838 108.77C304.415 110.531 290.649 115.822 278.76 124.174C266.87 132.526 257.223 143.681 250.674 156.651L166.584 154.66L167.18 129.479C167.234 127.232 166.684 125.011 165.589 123.048C164.495 121.085 162.894 119.45 160.954 118.314C159.014 117.178 156.806 116.582 154.558 116.588C152.31 116.593 150.104 117.201 148.17 118.347L45.9579 178.913C44.1092 179.999 42.5684 181.539 41.4814 183.387C40.3945 185.235 39.7973 187.33 39.7466 189.474C39.6958 191.617 40.1931 193.738 41.1914 195.636C42.1897 197.533 43.6559 199.144 45.4511 200.316L144.682 265.652C146.564 266.891 148.742 267.603 150.992 267.713C153.242 267.823 155.48 267.328 157.473 266.279C159.466 265.23 161.142 263.666 162.325 261.749C163.508 259.832 164.155 257.634 164.199 255.382L164.796 230.201L248.886 232.192C254.814 245.458 263.921 257.057 275.403 265.962C286.884 274.867 300.384 280.804 314.707 283.246L313.195 347.091C313.116 350.43 314.367 353.663 316.672 356.08C318.977 358.498 322.148 359.9 325.487 359.979L489.16 363.854C492.499 363.933 495.733 362.683 498.15 360.377C500.567 358.072 501.969 354.901 502.049 351.562L503.241 301.201L641.733 304.48L641.435 317.071C641.356 320.41 642.607 323.644 644.912 326.061C647.217 328.478 650.388 329.88 653.727 329.959L779.63 332.94C782.969 333.019 786.203 331.768 788.62 329.463C791.037 327.158 792.439 323.987 792.518 320.648L797.288 119.204C797.367 115.865 796.116 112.631 793.811 110.214C791.506 107.797 788.335 106.395 784.996 106.316ZM241.928 206.833L152.802 204.723C149.462 204.644 146.229 205.894 143.812 208.199C141.395 210.505 139.992 213.676 139.913 217.015L139.556 232.123L76.1356 190.31L141.462 151.609L141.106 166.654C141.027 169.993 142.277 173.227 144.582 175.644C146.888 178.061 150.059 179.463 153.398 179.542L242.524 181.653C241 189.962 240.799 198.46 241.928 206.833ZM477.166 338.376L338.674 335.096L340.164 272.145C340.243 268.806 338.993 265.572 336.688 263.155C334.382 260.738 331.211 259.336 327.872 259.257C311.177 258.862 295.322 251.85 283.796 239.765C272.27 227.68 266.016 211.511 266.412 194.815C266.807 178.12 273.818 162.265 285.904 150.739C297.989 139.213 314.158 132.96 330.853 133.355C334.192 133.434 337.426 132.183 339.843 129.878C342.26 127.573 343.663 124.402 343.742 121.063L345.232 58.1117L483.725 61.3908L480.946 178.719L461.361 165.822C450.835 158.957 438.036 156.498 425.715 158.973C413.395 161.448 402.539 168.661 395.482 179.058C388.425 189.456 385.731 202.208 387.979 214.572C390.228 226.935 397.239 237.922 407.506 245.169L478.137 294.711L477.166 338.376ZM642.33 279.3L495.024 275.812L421.913 224.574C418.837 222.411 416.341 219.522 414.647 216.164C412.953 212.806 412.114 209.082 412.203 205.322C412.302 201.269 413.483 197.316 415.624 193.872C417.764 190.429 420.786 187.62 424.376 185.737C427.967 183.854 431.995 182.964 436.045 183.161C440.095 183.358 444.018 184.634 447.409 186.856L523.184 236.772L537.061 215.685L505.754 195.066L508.011 99.7577L565.749 101.125L611.316 148.902C613.621 151.319 616.791 152.722 620.13 152.802L645.311 153.398L642.33 279.3ZM767.636 307.461L666.914 305.077L671.087 128.814L771.809 131.198L767.636 307.461Z" fill="#5DC2D3"></path><path d="M781.189 549.046L681.958 483.71C680.081 482.473 677.906 481.762 675.661 481.65C673.416 481.538 671.181 482.029 669.19 483.072C667.198 484.115 665.522 485.672 664.336 487.581C663.149 489.49 662.496 491.683 662.442 493.93L661.846 519.11L498.501 515.243C504.5 507.59 512.198 501.438 520.985 497.273C529.772 493.108 539.408 491.045 549.13 491.247C552.469 491.326 555.703 490.075 558.12 487.77C560.537 485.465 561.94 482.294 562.019 478.955L563.807 403.414C563.886 400.074 562.636 396.841 560.331 394.424C558.025 392.007 554.854 390.604 551.515 390.525L350.072 385.756C346.733 385.676 343.499 386.927 341.082 389.232C338.665 391.538 337.262 394.709 337.183 398.048L333.904 536.54L258.363 534.751C255.024 534.673 251.791 535.924 249.374 538.23L201.597 583.797L181.629 583.324L181.927 570.733C182.006 567.394 180.756 564.161 178.45 561.744C176.145 559.327 172.974 557.924 169.635 557.845L43.7329 554.864C40.3938 554.785 37.16 556.036 34.7429 558.341C32.3259 560.646 30.9236 563.817 30.8446 567.156L26.0749 768.6C25.9958 771.939 27.2464 775.173 29.5516 777.59C31.8569 780.007 35.0278 781.409 38.367 781.488L164.269 784.469C167.608 784.548 170.842 783.298 173.259 780.992C175.676 778.687 177.078 775.516 177.157 772.177L177.456 759.587L328.538 763.164C331.025 763.219 333.472 762.541 335.576 761.214L409.049 714.681L543.764 717.871C547.104 717.95 550.337 716.699 552.754 714.394C555.171 712.089 556.574 708.918 556.653 705.579L558.441 630.038C558.52 626.698 557.27 623.465 554.965 621.048C552.659 618.631 549.488 617.228 546.149 617.149C536.428 616.891 526.901 614.374 518.321 609.798C509.74 605.222 502.342 598.713 496.712 590.784L660.057 594.652L659.461 619.832C659.408 622.08 659.957 624.3 661.052 626.264C662.147 628.227 663.747 629.862 665.687 630.998C667.627 632.134 669.836 632.73 672.084 632.724C674.332 632.718 676.537 632.111 678.471 630.965L780.684 570.399C782.532 569.313 784.073 567.773 785.16 565.924C786.247 564.076 786.844 561.981 786.895 559.838C786.946 557.695 786.449 555.574 785.45 553.676C784.452 551.779 782.986 550.167 781.191 548.995L781.189 549.046ZM156.151 595.318L152.275 758.991L51.5534 756.606L55.7269 580.343L156.449 582.727L156.151 595.318ZM400.812 690.123L325.357 737.894L178.052 734.406L181.033 608.504L206.213 609.1C209.552 609.179 212.785 607.928 215.202 605.622L262.979 560.055L333.308 561.721L331.238 649.16L286.136 675.894L298.975 697.613L377.066 651.328C380.554 649.277 384.528 648.193 388.575 648.19C392.622 648.186 396.597 649.263 400.09 651.309C403.582 653.354 406.465 656.295 408.442 659.827C410.418 663.359 411.417 667.354 411.334 671.401C411.25 675.145 410.246 678.811 408.412 682.076C406.577 685.341 403.967 688.105 400.812 690.123ZM532.984 641.138L531.77 692.392L432.484 690.042C436.578 680.756 437.615 670.41 435.444 660.497C433.274 650.585 428.009 641.618 420.409 634.893C412.809 628.169 403.269 624.034 393.165 623.086C383.062 622.138 372.919 624.427 364.201 629.621L356.789 634.081L362.066 411.234L538.329 415.408L537.115 466.662C516.054 469.178 496.606 479.202 482.339 494.897C468.071 510.592 459.941 530.905 459.439 552.11C458.937 573.314 466.096 593.989 479.605 610.342C493.114 626.694 512.066 637.628 532.984 641.138ZM685.178 597.766L685.536 582.658C685.615 579.319 684.364 576.085 682.059 573.668C679.754 571.251 676.583 569.848 673.244 569.769L485.65 565.328C484.15 556.98 484.353 548.415 486.246 540.147L673.84 544.589C677.179 544.668 680.413 543.417 682.83 541.112C685.247 538.807 686.649 535.636 686.728 532.297L687.086 517.189L750.506 559.002L685.178 597.766Z" fill="#5DC2D3"></path></svg>