<svg xmlns="http://www.w3.org/2000/svg" width="687" height="687" viewBox="0 0 687 687" fill="none"><g clip-path="url(#clip0_111_12)"><path d="M563.617 335.545C569.175 335.573 573.658 340.1 573.631 345.657C573.013 472.237 470.218 574.655 343.498 574.655C283.391 574.655 228.652 551.591 187.674 513.868C183.586 510.104 183.323 503.737 187.087 499.648C190.852 495.559 197.218 495.295 201.307 499.06C238.717 533.499 288.639 554.528 343.498 554.528C459.135 554.528 552.94 461.068 553.504 345.56C553.531 340.002 558.059 335.518 563.617 335.545Z" fill="#5DC2D3"></path><path d="M521.569 214.804C526.204 211.737 532.448 213.007 535.515 217.641C551.23 241.381 562.67 268.217 568.72 297.048C569.861 302.488 566.377 307.822 560.938 308.963C555.498 310.105 550.163 306.621 549.021 301.181C543.505 274.892 533.074 250.417 518.733 228.75C515.665 224.116 516.935 217.872 521.569 214.804Z" fill="#5DC2D3"></path><path d="M113.365 344.521C113.365 284.599 136.274 230.014 173.802 189.076L174.133 188.733C216.161 143.036 276.499 114.389 343.498 114.389C401.062 114.389 453.727 135.542 494.078 170.506C498.278 174.145 498.732 180.501 495.093 184.701C491.454 188.901 485.097 189.356 480.897 185.716C444.068 153.804 396.042 134.516 343.498 134.516C282.203 134.516 227.042 160.765 188.655 202.674C188.583 202.752 188.507 202.827 188.432 202.903C154.297 240.248 133.492 289.937 133.492 344.521C133.492 377.524 141.1 408.718 154.64 436.463C157.077 441.458 155.004 447.483 150.009 449.921C145.014 452.358 138.989 450.285 136.552 445.29C121.699 414.855 113.365 380.649 113.365 344.521Z" fill="#5DC2D3"></path><path d="M232.436 456.214V455.797C232.437 429.829 253.476 408.794 279.453 408.794H302.6C317.46 408.794 329.49 396.746 329.49 381.904V381.476C329.49 366.623 317.462 354.585 302.6 354.585H228.237C202.27 354.585 181.22 333.535 181.22 307.568V307.14C181.22 281.184 202.273 260.136 228.237 260.136C235.671 260.136 242.373 257.14 247.259 252.254C252.125 247.376 255.126 240.672 255.126 233.246V232.83C255.126 217.979 243.088 205.94 228.237 205.94H181.22C175.662 205.94 171.157 201.435 171.157 195.877C171.157 190.319 175.662 185.813 181.22 185.813H228.237C254.204 185.813 275.253 206.863 275.253 232.83V233.246C275.253 246.239 269.966 257.995 261.499 266.48L261.491 266.487C252.985 274.993 241.224 280.263 228.237 280.263C213.384 280.263 201.347 292.305 201.347 307.14V307.568C201.347 322.419 213.386 334.458 228.237 334.458H302.6C328.583 334.458 349.617 355.511 349.617 381.476V381.904C349.617 407.853 328.585 428.921 302.6 428.921H279.453C264.587 428.921 252.564 440.949 252.563 455.797V456.214C252.563 482.196 231.511 503.231 205.547 503.231H197.563C192.005 503.23 187.5 498.725 187.499 493.167C187.499 487.609 192.005 483.104 197.563 483.104H205.547C220.4 483.104 232.436 471.076 232.436 456.214Z" fill="#5DC2D3"></path><path d="M407.194 456.307V455.717C407.194 429.804 428.203 408.794 454.116 408.794H478.363C493.169 408.794 505.173 396.786 505.173 381.971V381.381C505.173 366.587 493.176 354.585 478.363 354.585H473.318C447.405 354.585 426.395 333.576 426.395 307.662V307.072C426.394 292.261 414.396 280.263 399.586 280.263C386.632 280.263 374.886 274.987 366.399 266.501V266.499C357.918 258.032 352.649 246.284 352.649 233.326V232.735C352.65 206.82 373.662 185.813 399.586 185.813H479.451C485.008 185.814 489.514 190.319 489.514 195.877C489.514 201.434 485.008 205.94 479.451 205.94H399.586C384.773 205.94 372.777 217.941 372.776 232.735V233.326C372.776 240.733 375.77 247.418 380.623 252.261L380.631 252.269C385.508 257.146 392.199 260.136 399.586 260.136C425.512 260.136 446.521 281.145 446.521 307.072V307.662C446.522 322.46 458.521 334.458 473.318 334.458H478.363C504.287 334.458 525.3 355.466 525.3 381.381V381.971C525.3 407.893 504.294 428.921 478.363 428.921H454.116C439.319 428.921 427.321 440.92 427.321 455.717V456.307C427.321 471.104 439.319 483.104 454.116 483.104H505.777C511.334 483.104 515.84 487.609 515.84 493.167C515.84 498.725 511.334 503.23 505.777 503.231H454.116C428.203 503.23 407.194 482.22 407.194 456.307Z" fill="#5DC2D3"></path><path d="M149.419 527.302C193.384 527.302 230.595 556.082 243.295 595.808C248.418 611.825 239.83 628.232 225.2 633.853C223.972 634.388 222.617 634.687 221.192 634.687C215.634 634.687 211.129 630.181 211.128 624.623V624.609C211.129 620.366 213.79 616.579 217.782 615.142C222.835 613.322 225.937 607.603 224.126 601.94V601.939C214.015 570.309 184.378 547.429 149.419 547.429C114.259 547.43 84.4679 570.581 74.535 602.503L74.5363 602.505C72.5564 608.876 77.4737 615.767 84.6378 615.767H174.255C179.813 615.767 184.32 620.272 184.32 625.83C184.32 631.388 179.813 635.894 174.255 635.894H84.6378C64.4023 635.894 49.1649 616.324 55.3161 596.531L55.3174 596.528C67.7937 556.426 105.2 527.303 149.419 527.302Z" fill="#5DC2D3"></path><path d="M187.672 489.044C187.672 467.918 170.546 450.793 149.42 450.793C128.294 450.793 111.169 467.919 111.168 489.044C111.168 510.17 128.294 527.296 149.42 527.296C170.546 527.296 187.672 510.17 187.672 489.044ZM207.799 489.044C207.799 521.286 181.662 547.423 149.42 547.423C117.178 547.423 91.0415 521.286 91.0415 489.044C91.0416 456.803 117.179 430.666 149.42 430.666C181.662 430.666 207.799 456.803 207.799 489.044Z" fill="#5DC2D3"></path><path d="M563.613 124.663C607.575 124.663 644.789 153.447 657.484 193.171H657.483C663.777 212.862 649.313 233.257 628.385 233.257H498.831C498.792 233.257 498.754 233.253 498.715 233.253C478.54 233.179 463.369 213.654 469.516 193.895C481.989 153.796 519.386 124.663 563.613 124.663ZM563.613 144.79C528.997 144.79 499.596 167.232 489.214 198.385L488.735 199.874C486.754 206.241 491.664 213.129 498.831 213.129C498.848 213.129 498.865 213.13 498.882 213.13H628.385C635.425 213.13 640.533 206.247 638.312 199.298H638.311C628.203 167.671 598.567 144.79 563.613 144.79Z" fill="#5DC2D3"></path><path d="M601.865 86.4104C601.865 65.2845 584.739 48.1587 563.614 48.1587C542.488 48.1588 525.362 65.2846 525.362 86.4104C525.362 107.536 542.488 124.662 563.614 124.662C584.739 124.662 601.865 107.536 601.865 86.4104ZM621.992 86.4104C621.992 118.652 595.855 144.789 563.614 144.789C531.372 144.789 505.235 118.652 505.235 86.4104C505.235 54.1687 531.372 28.0318 563.614 28.0317C595.855 28.0317 621.992 54.1687 621.992 86.4104Z" fill="#5DC2D3"></path><path d="M621.97 352.663C632.478 339.761 653.014 343.069 658.936 358.621L685.566 428.547C691.49 444.101 678.354 460.234 661.922 457.583V457.581L651.851 455.958C630.529 514.185 592.495 566.149 542.986 604.099C485.326 648.299 416.307 671.675 343.496 671.675C327.337 671.675 314.236 658.575 314.236 642.414C314.236 626.255 327.335 613.154 343.496 613.154C403.373 613.154 460.009 593.97 507.384 557.655C545.063 528.773 574.677 489.989 592.762 446.436L588.044 445.676C571.613 443.027 564.213 423.584 574.721 410.68L621.97 352.663ZM334.363 642.414C334.363 647.458 338.452 651.548 343.496 651.548C411.891 651.548 476.605 629.625 530.742 588.126C579.344 550.871 616.201 499.175 635.611 441.476C637.18 436.812 641.893 433.967 646.751 434.75L665.126 437.713H665.128C666.189 437.884 667.052 436.918 666.819 435.912L666.758 435.71L640.127 365.785L640.126 365.784C639.718 364.712 638.302 364.483 637.576 365.374L590.328 423.391C589.603 424.281 590.113 425.623 591.246 425.806H591.247L608.252 428.547C611.211 429.024 613.804 430.796 615.324 433.379C616.844 435.964 617.133 439.092 616.111 441.911C597.351 493.679 563.621 539.906 519.628 573.629C468.729 612.645 407.787 633.281 343.496 633.281C338.452 633.281 334.363 637.37 334.363 642.414Z" fill="#5DC2D3"></path><path d="M352.633 44.5886C352.633 39.5463 348.538 35.4503 343.496 35.4503C275.098 35.4503 210.389 57.3737 156.251 98.8803L156.25 98.8816C132.118 117.376 110.869 139.428 93.2142 164.037C89.9745 168.553 83.6873 169.589 79.1712 166.349C74.6553 163.109 73.6214 156.822 76.8611 152.306C95.65 126.115 118.278 102.625 144.007 82.9058C201.668 38.6989 270.683 15.3233 343.496 15.3233C359.654 15.3233 372.761 28.4304 372.761 44.5886C372.761 60.7465 359.654 73.8526 343.496 73.8526C283.618 73.8526 226.987 93.0397 179.612 129.354C141.93 158.238 112.319 197.018 94.2297 240.572L98.9339 241.33H98.9352C115.38 243.966 122.783 263.42 112.269 276.324L112.271 276.325L65.026 334.345L65.0221 334.349C54.6706 347.047 34.6132 344.034 28.3402 329.098L28.0519 328.377L1.43087 258.456C-4.3976 243.144 8.22927 227.282 24.2899 229.305L25.0578 229.415L25.0643 229.416L35.1409 231.041C39.8674 218.131 45.4159 205.529 51.7338 193.329C54.2897 188.393 60.3631 186.465 65.2986 189.02C70.2335 191.576 72.1626 197.649 69.607 202.584C62.4482 216.408 56.344 230.774 51.384 245.524C49.8152 250.189 45.1014 253.035 40.2421 252.251L21.8671 249.287L21.6587 249.268C20.6306 249.244 19.855 250.279 20.2409 251.295L46.862 321.216V321.218C47.2731 322.297 48.6892 322.525 49.4185 321.636L96.6631 263.616L96.667 263.612C97.3916 262.723 96.8793 261.384 95.7484 261.202H95.7419L78.7414 258.465C75.7809 257.988 73.1871 256.216 71.6669 253.631C70.1466 251.046 69.8587 247.919 70.8807 245.099C89.6471 193.332 123.367 147.106 167.367 113.379C218.265 74.3645 279.203 53.7257 343.496 53.7257C348.538 53.7257 352.633 49.6306 352.633 44.5886Z" fill="#5DC2D3"></path></g><defs><clipPath id="clip0_111_12"><rect width="687" height="687" fill="white"></rect></clipPath></defs></svg>