<svg xmlns="http://www.w3.org/2000/svg" width="60" height="60" viewBox="0 0 60 60" fill="none"><circle cx="30" cy="30" r="30" fill="#EFF9FB"></circle><path d="M39.5271 18.9815V18.9815C39.6923 16.8338 37.9941 15 35.8401 15H23.8266C21.6725 15 19.9744 16.8338 20.1396 18.9815V18.9815M39.5271 18.9815L38.8058 28.3579C38.6059 30.9572 38.5059 32.2568 38.0128 33.2773C37.3548 34.6388 36.207 35.7017 34.7991 36.2533C33.7438 36.6667 32.4403 36.6667 29.8333 36.6667V36.6667M39.5271 18.9815V18.9815C42.7801 18.9815 45.2906 21.8434 44.8669 25.0688L44.7098 26.2644C44.6871 26.4373 44.6757 26.5238 44.6639 26.599C44.2139 29.46 41.7843 31.5912 38.889 31.6647C38.8129 31.6667 38.7257 31.6667 38.5513 31.6667V31.6667M20.1396 18.9815L20.8609 28.3579C21.0608 30.9572 21.1608 32.2568 21.6539 33.2773C22.3118 34.6388 23.4596 35.7017 24.8676 36.2533C25.9229 36.6667 27.2263 36.6667 29.8333 36.6667V36.6667M20.1396 18.9815V18.9815C16.8865 18.9815 14.376 21.8434 14.7998 25.0688L14.9569 26.2644C14.9796 26.4373 14.991 26.5238 15.0028 26.599C15.4528 29.46 17.8824 31.5912 20.7777 31.6647C20.8538 31.6667 20.941 31.6667 21.1154 31.6667V31.6667M29.8333 36.6667V40M29.8333 40L35.3804 43.3283C36.3697 43.9218 36.8644 44.2186 36.8615 44.505C36.8606 44.5922 36.8369 44.6777 36.7928 44.7529C36.6479 45 36.0711 45 34.9174 45H24.7493C23.5956 45 23.0187 45 22.8738 44.7529C22.8297 44.6777 22.8061 44.5922 22.8052 44.505C22.8023 44.2186 23.2969 43.9218 24.2862 43.3283L29.8333 40Z" stroke="#5DC2D3" stroke-width="2" stroke-linejoin="round"></path><path d="M29.0263 21.2185C29.3357 20.5915 29.4905 20.278 29.723 20.2253C29.7956 20.2089 29.871 20.2089 29.9437 20.2253C30.1762 20.278 30.3309 20.5915 30.6404 21.2185L31.4265 22.8114C31.5175 22.9957 31.563 23.0879 31.6364 23.1529C31.6605 23.1743 31.6867 23.1934 31.7145 23.2097C31.7991 23.2594 31.9008 23.2742 32.1042 23.3038L33.862 23.5592C34.554 23.6597 34.9 23.71 35.0219 23.9149C35.06 23.9789 35.0833 24.0506 35.0901 24.1248C35.1119 24.3622 34.8615 24.6062 34.3608 25.0943L33.0888 26.3342C32.9416 26.4777 32.868 26.5494 32.8289 26.6393C32.816 26.6689 32.806 26.6997 32.799 26.7312C32.7779 26.8269 32.7952 26.9282 32.83 27.1308L33.1303 28.8816C33.2485 29.5708 33.3076 29.9154 33.1504 30.0946C33.1013 30.1506 33.0403 30.1949 32.9719 30.2243C32.7528 30.3184 32.4433 30.1557 31.8244 29.8303L30.2521 29.0037C30.0702 28.9081 29.9792 28.8603 29.8817 28.8508C29.8495 28.8477 29.8171 28.8477 29.785 28.8508C29.6874 28.8603 29.5965 28.9081 29.4145 29.0037L27.8423 29.8303C27.2233 30.1557 26.9138 30.3184 26.6948 30.2243C26.6264 30.1949 26.5654 30.1506 26.5163 30.0946C26.3591 29.9154 26.4182 29.5708 26.5364 28.8816L26.8367 27.1308C26.8714 26.9282 26.8888 26.8269 26.8677 26.7312C26.8607 26.6997 26.8507 26.6689 26.8378 26.6393C26.7986 26.5494 26.725 26.4777 26.5778 26.3342L25.3059 25.0943C24.8051 24.6062 24.5548 24.3622 24.5766 24.1248C24.5834 24.0506 24.6067 23.9789 24.6448 23.9149C24.7666 23.71 25.1126 23.6597 25.8046 23.5592L27.5625 23.3038C27.7659 23.2742 27.8676 23.2594 27.9521 23.2097C27.98 23.1934 28.0061 23.1743 28.0303 23.1529C28.1037 23.0879 28.1492 22.9957 28.2401 22.8114L29.0263 21.2185Z" stroke="#5DC2D3" stroke-width="2" stroke-linejoin="round"></path></svg>