<svg xmlns="http://www.w3.org/2000/svg" width="60" height="60" viewBox="0 0 60 60" fill="none"><circle cx="30" cy="30" r="30" fill="#EFF9FB"></circle><path d="M21.3301 19.7065C21.1841 19.2612 20.8721 18.8998 20.4527 18.6891L17.572 17.2471C17.156 17.0338 16.6813 16.9958 16.234 17.1391C15.788 17.2831 15.426 17.5911 15.2146 18.0051L10.1899 27.8073C9.97856 28.2273 9.9419 28.7013 10.0886 29.1433C10.2339 29.5827 10.5432 29.94 10.9592 30.1487L13.846 31.6007C14.098 31.7267 14.366 31.7867 14.6306 31.7867C15.122 31.7867 15.598 31.5773 15.9333 31.2087L16.1127 31.288C16.4887 31.454 16.7947 31.7507 16.9727 32.124L17.38 32.98L17.2173 33.184C16.8287 33.6734 16.6547 34.2841 16.7287 34.9041C16.8027 35.5254 17.1167 36.0794 17.6214 36.4728C18.0507 36.8068 18.5614 36.9681 19.0694 36.9681C19.1754 36.9681 19.2794 36.9474 19.384 36.9334C19.3854 36.9468 19.3834 36.9594 19.3847 36.9728C19.458 37.5941 19.7727 38.1481 20.2774 38.5415C20.7067 38.8755 21.2174 39.0375 21.7254 39.0375C21.8314 39.0375 21.9354 39.0168 22.0401 39.0028C22.0414 39.0155 22.0394 39.0275 22.0408 39.0395C22.1148 39.6608 22.4281 40.2155 22.9334 40.6088C23.3628 40.9428 23.8735 41.1048 24.3815 41.1048C24.4875 41.1048 24.5915 41.0842 24.6961 41.0702C24.6975 41.0835 24.6955 41.0962 24.6968 41.1095C24.7708 41.7302 25.0848 42.2849 25.5895 42.6775C26.0188 43.0115 26.5295 43.1735 27.0375 43.1735C27.6308 43.1735 28.2109 42.9395 28.6575 42.5135L29.4942 43.1655C29.9109 43.4895 30.4316 43.6662 30.9542 43.6662C31.0456 43.6662 31.1356 43.6609 31.2262 43.6502C31.8402 43.5782 32.4129 43.2589 32.7983 42.7749C33.0469 42.4615 33.2076 42.0989 33.2723 41.7162C33.6209 41.8475 34.0023 41.8935 34.3783 41.8488C34.9923 41.7768 35.565 41.4575 35.9496 40.9735C36.199 40.6608 36.3596 40.2982 36.4243 39.9155C36.7737 40.0462 37.1517 40.0935 37.5317 40.0482C38.1543 39.9742 38.7124 39.6628 39.1017 39.1721C39.411 38.7841 39.5844 38.3201 39.6064 37.8348C39.7864 37.8541 39.9684 37.8548 40.1517 37.8334C40.7224 37.7654 41.2484 37.4928 41.6331 37.0641C42.0517 36.5968 42.2511 35.9848 42.1937 35.3407C42.1431 34.7754 41.8891 34.2521 41.4984 33.8467C42.3031 33.222 43.2471 32.4347 44.1204 31.5673C44.4224 31.792 44.7918 31.9214 45.1758 31.9214C45.3558 31.9214 45.5378 31.894 45.7171 31.8354L48.7925 30.8453C48.7925 30.8453 48.7952 30.844 48.7965 30.844C49.2439 30.6967 49.6059 30.3847 49.8152 29.9653C50.0232 29.55 50.0565 29.08 49.9105 28.6446L46.4618 18.1911C46.1558 17.2825 45.1665 16.7884 44.2538 17.0871L41.1744 18.0791C40.4797 18.3085 40.025 18.9338 39.9757 19.6218L37.9917 20.3358C37.799 20.4052 37.591 20.4278 37.387 20.4038L30.8176 19.5872C29.7395 19.4518 28.6495 19.8372 27.8982 20.6098L27.1355 21.3939L24.0468 21.5212C23.6841 21.5392 23.3408 21.4539 23.0308 21.2852L21.4067 20.4018C21.4274 20.1712 21.4027 19.9365 21.3281 19.7092L21.3301 19.7065ZM14.444 30.4087L11.5573 28.9566C11.4599 28.9073 11.3873 28.8253 11.3539 28.724C11.3199 28.6213 11.3293 28.5086 11.3779 28.4113L16.4007 18.6111C16.45 18.5138 16.536 18.4411 16.6427 18.4065C16.6847 18.3925 16.728 18.3865 16.7713 18.3865C16.838 18.3865 16.9047 18.4018 16.968 18.4351L19.8541 19.8798C19.9534 19.9298 20.0281 20.0152 20.0621 20.1205C20.0954 20.2218 20.0867 20.3305 20.0387 20.4252L15.0106 30.2247C14.9073 30.4267 14.6486 30.5127 14.4426 30.4073L14.444 30.4087ZM18.4314 35.4127C18.002 35.0787 17.924 34.4394 18.2614 34.0127L19.1054 32.9527C19.448 32.5227 20.1054 32.4474 20.5474 32.7914C20.9787 33.1267 21.0574 33.7634 20.7167 34.1914L19.8747 35.2514C19.5274 35.6887 18.8834 35.7648 18.4314 35.4127ZM21.0874 37.4814C20.6574 37.1468 20.5781 36.5081 20.9181 36.0814L22.5961 33.9701C22.9374 33.54 23.5988 33.4647 24.0395 33.8087C24.4675 34.1427 24.5461 34.7834 24.2088 35.2087L22.5294 37.3208C22.1828 37.7581 21.5387 37.8334 21.0874 37.4814ZM23.7435 39.5501C23.3108 39.2141 23.2341 38.5795 23.5734 38.1495L24.8348 36.5634C25.1768 36.1328 25.8348 36.0588 26.2768 36.4021C26.7068 36.7361 26.7855 37.3754 26.4468 37.8021L25.1855 39.3881C24.8375 39.8255 24.1948 39.9008 23.7435 39.5501ZM26.3995 41.6175C25.9708 41.2828 25.8915 40.6468 26.2302 40.2175L27.0735 39.1575C27.4195 38.7221 28.0815 38.6581 28.5155 38.9968C28.9475 39.3335 29.0242 39.9668 28.6855 40.3968L27.8415 41.4568C27.4948 41.8942 26.8508 41.9702 26.3995 41.6175ZM41.5891 19.3445L44.6678 18.3531C44.7118 18.3385 44.7571 18.3318 44.8011 18.3318C44.9771 18.3318 45.1411 18.4411 45.1991 18.6111L48.6472 29.064C48.6812 29.1633 48.6732 29.2713 48.6252 29.3666C48.5758 29.4653 48.4898 29.54 48.3832 29.5753L45.3078 30.5647C45.0831 30.642 44.8485 30.5233 44.7751 30.3073L41.3224 19.8618C41.2531 19.6478 41.3744 19.4145 41.5891 19.3445ZM28.8555 21.5372C29.3182 21.0618 29.9929 20.8285 30.6556 20.9078L37.2237 21.7245C37.6343 21.7779 38.0557 21.7292 38.4444 21.5885L40.271 20.9305L43.4004 30.3973C42.4304 31.3927 41.3264 32.3034 40.443 32.9774L30.7589 25.4366C30.3816 25.1426 29.8889 25.0119 29.4069 25.0799C28.9575 25.1432 28.5702 25.3699 28.3149 25.7193C28.1069 26.0039 27.9955 26.3419 27.9942 26.7066L28.0209 28.9213C28.0242 29.266 27.9022 29.6107 27.6782 29.892C27.4535 30.1747 27.1342 30.374 26.7782 30.4527C26.5775 30.4987 26.3755 30.458 26.2115 30.342C26.0362 30.218 25.9248 30.0253 25.8982 29.8007L25.4568 26.1373C25.3821 25.5133 25.5921 24.8946 26.0322 24.4386L28.8542 21.5372H28.8555ZM23.9681 22.8525C24.0128 22.8525 24.0588 22.8525 24.1035 22.8499L25.7848 22.7805L25.0761 23.5092C24.3541 24.2566 24.0101 25.2719 24.1335 26.2953L24.5748 29.9593C24.6468 30.554 24.9628 31.0893 25.4415 31.4287C25.9148 31.7647 26.4908 31.88 27.0668 31.7534C27.7202 31.608 28.3082 31.2407 28.7215 30.7207C29.1349 30.2013 29.3595 29.5573 29.3535 28.906L29.3269 26.7006C29.3269 26.6266 29.3482 26.5619 29.3915 26.5033C29.4462 26.4286 29.5409 26.4053 29.5915 26.3979C29.7169 26.3839 29.8482 26.4146 29.9396 26.4866C29.9396 26.4866 40.4204 34.6481 40.429 34.6547C40.8764 35.0027 41.0411 35.7247 40.6404 36.1708C40.283 36.5694 39.659 36.6208 39.2377 36.2934L38.7064 35.8801C38.415 35.6528 37.997 35.7061 37.771 35.9968C37.545 36.2874 37.597 36.7054 37.8883 36.9328C38.3183 37.2681 38.3984 37.9128 38.059 38.3395C37.7057 38.7828 37.0637 38.8435 36.617 38.5088L35.5543 37.6814C35.263 37.4541 34.845 37.5074 34.619 37.7981C34.393 38.0888 34.445 38.5068 34.7376 38.7348C34.9496 38.9015 35.085 39.1388 35.1163 39.4048C35.1476 39.6695 35.0736 39.9315 34.907 40.1408C34.561 40.5762 33.9023 40.6502 33.4649 40.3095C33.4649 40.3095 32.4036 39.4841 32.4023 39.4828C32.1109 39.2561 31.6929 39.3101 31.4669 39.5995C31.2409 39.8902 31.2929 40.3088 31.5856 40.5368C31.7976 40.7028 31.9329 40.9395 31.9642 41.2055C31.9956 41.4702 31.9216 41.7322 31.7549 41.9422C31.4149 42.3715 30.7556 42.4529 30.3129 42.1109L29.5162 41.4902C29.5162 41.4902 29.7275 41.2248 29.7282 41.2248C30.1176 40.7348 30.2909 40.1242 30.2162 39.5041C30.1429 38.8835 29.8289 38.3295 29.3242 37.9361C28.9229 37.6234 28.4495 37.4674 27.9749 37.4474C27.9949 37.2708 28.0002 37.0914 27.9789 36.9108C27.9055 36.2901 27.5915 35.7354 27.0868 35.3427C26.6848 35.0294 26.2122 34.8721 25.7368 34.8527C25.7568 34.6761 25.7628 34.4974 25.7408 34.3161C25.6668 33.6947 25.3528 33.1407 24.8481 32.7474C24.0208 32.104 22.8954 32.1094 22.0708 32.6707C21.9174 32.3087 21.6814 31.984 21.3561 31.7314C20.4407 31.0173 19.1534 31.0947 18.3214 31.854L18.176 31.5487C17.86 30.8867 17.318 30.36 16.6507 30.0667L16.6013 30.0447L20.9121 21.6439L22.3948 22.4505C22.8774 22.7139 23.4181 22.8505 23.9675 22.8505L23.9681 22.8525Z" fill="#5DC2D3"></path></svg>