<svg xmlns="http://www.w3.org/2000/svg" width="30" height="30" viewBox="0 0 30 30" fill="none"><g clip-path="url(#clip0_1442_2259)"><path d="M24.6331 29.4886C18.2308 30.1716 11.774 30.1716 5.37169 29.4886C4.12843 29.3573 2.96773 28.8038 2.0831 27.9204C1.19847 27.037 0.643365 25.8771 0.510329 24.634C-0.172714 18.2317 -0.172714 11.775 0.510329 5.37267C0.64162 4.1294 1.1951 2.9687 2.07848 2.08407C2.96187 1.19945 4.1218 0.644341 5.36487 0.511306C11.7672 -0.171737 18.2239 -0.171737 24.6262 0.511306C25.8695 0.642596 27.0302 1.19607 27.9148 2.07946C28.7995 2.96285 29.3546 4.12277 29.4876 5.36585C30.1706 11.7681 30.1706 18.2249 29.4876 24.6272C29.3563 25.8705 28.8028 27.0312 27.9194 27.9158C27.0361 28.8004 25.8761 29.3555 24.6331 29.4886Z" fill="url(#paint0_linear_1442_2259)"></path><path d="M18.7892 5.625H11.2108C9.7299 5.6268 8.31018 6.21589 7.26303 7.26303C6.21589 8.31018 5.6268 9.7299 5.625 11.2108V18.7892C5.6268 20.2701 6.21589 21.6898 7.26303 22.737C8.31018 23.7841 9.7299 24.3732 11.2108 24.375H18.7892C20.2701 24.3732 21.6898 23.7841 22.737 22.737C23.7841 21.6898 24.3732 20.2701 24.375 18.7892V11.2108C24.3732 9.7299 23.7841 8.31018 22.737 7.26303C21.6898 6.21589 20.2701 5.6268 18.7892 5.625ZM22.4881 18.7892C22.4883 19.275 22.3928 19.7561 22.207 20.205C22.0212 20.6538 21.7487 21.0617 21.4052 21.4052C21.0617 21.7487 20.6538 22.0212 20.205 22.207C19.7561 22.3928 19.275 22.4883 18.7892 22.4881H11.2108C10.725 22.4883 10.2439 22.3928 9.79504 22.207C9.34617 22.0212 8.93832 21.7487 8.5948 21.4052C8.25129 21.0617 7.97884 20.6538 7.79304 20.205C7.60723 19.7561 7.51171 19.275 7.51193 18.7892V11.2108C7.51193 10.2298 7.90163 9.28898 8.5953 8.5953C9.28898 7.90163 10.2298 7.51193 11.2108 7.51193H18.7892C19.7702 7.51193 20.711 7.90163 21.4047 8.5953C22.0984 9.28898 22.4881 10.2298 22.4881 11.2108V18.7892Z" fill="white"></path><path d="M14.9998 10.1506C14.0407 10.1506 13.1031 10.435 12.3056 10.9679C11.5081 11.5008 10.8866 12.2582 10.5195 13.1443C10.1525 14.0304 10.0565 15.0054 10.2436 15.9461C10.4307 16.8868 10.8926 17.7509 11.5708 18.4291C12.249 19.1073 13.1131 19.5692 14.0537 19.7563C14.9944 19.9434 15.9695 19.8474 16.8556 19.4804C17.7417 19.1133 18.4991 18.4918 19.032 17.6943C19.5648 16.8968 19.8493 15.9592 19.8493 15.0001C19.8475 13.7145 19.336 12.482 18.4269 11.573C17.5178 10.6639 16.2854 10.1524 14.9998 10.1506ZM14.9998 17.9643C14.4136 17.9643 13.8405 17.7904 13.353 17.4647C12.8655 17.139 12.4856 16.6761 12.2613 16.1344C12.0369 15.5928 11.9782 14.9968 12.0926 14.4218C12.207 13.8468 12.4893 13.3186 12.9038 12.9041C13.3184 12.4895 13.8465 12.2072 14.4215 12.0928C14.9965 11.9784 15.5925 12.0371 16.1342 12.2615C16.6758 12.4859 17.1388 12.8658 17.4645 13.3532C17.7902 13.8407 17.964 14.4138 17.964 15.0001C17.9636 15.7861 17.6511 16.5398 17.0953 17.0956C16.5395 17.6514 15.7858 17.9638 14.9998 17.9643Z" fill="white"></path><path d="M19.876 11.349C20.5378 11.349 21.0743 10.8125 21.0743 10.1507C21.0743 9.48889 20.5378 8.95239 19.876 8.95239C19.2142 8.95239 18.6777 9.48889 18.6777 10.1507C18.6777 10.8125 19.2142 11.349 19.876 11.349Z" fill="white"></path></g><defs><linearGradient id="paint0_linear_1442_2259" x1="2.23192" y1="27.767" x2="27.2717" y2="2.72721" gradientUnits="userSpaceOnUse"><stop stop-color="#E09B3D"></stop><stop offset="0.3" stop-color="#C74C4D"></stop><stop offset="0.6" stop-color="#C21975"></stop><stop offset="1" stop-color="#7024C4"></stop></linearGradient><clipPath id="clip0_1442_2259"><rect width="30" height="30" fill="white"></rect></clipPath></defs></svg>