<svg xmlns="http://www.w3.org/2000/svg" width="80" height="81" viewBox="0 0 80 81" fill="none"><circle cx="40" cy="40.0469" r="40" fill="#5DC2D3"></circle><path d="M60 55.2382C59.9997 53.8265 59.1601 52.5569 57.861 52.0042L47.8963 47.7647V45.2802C48.9513 43.9558 49.6185 42.3783 49.8418 40.6846H51.8789C53.8174 40.6846 55.3946 39.1074 55.3946 37.1689V32.1289C55.3946 30.3564 54.0756 28.887 52.3678 28.648C52.1145 21.0232 47.8515 17 40.0002 17C32.1488 17 27.8858 21.0232 27.6325 28.648C25.9247 28.887 24.6057 30.3564 24.6057 32.1289V37.1689C24.6057 39.1074 26.1829 40.6846 28.1214 40.6846H30.1585C30.3819 42.3786 31.049 43.9561 32.104 45.2802V47.7647L22.1396 52.0042C20.8402 52.5569 20.0006 53.8265 20 55.2385V55.8278C20 56.1388 20.1233 56.4369 20.3433 56.6567C20.5631 56.8764 20.8612 57 21.1719 57H58.8284C59.1394 57 59.4376 56.8764 59.6573 56.6567C59.877 56.4366 60.0003 56.1385 60.0003 55.8278L60 55.2382ZM45.5538 48.5868C45.5547 48.6149 45.6203 51.4592 43.9403 53.2088C43.0178 54.1692 41.6921 54.6559 40.0002 54.6559C38.3143 54.6559 36.992 54.1725 36.0701 53.2191C34.3699 51.4604 34.4459 48.6116 34.4465 48.5868C34.4474 48.571 34.4477 48.5554 34.4477 48.5395V47.3793C36.0524 48.3946 37.9664 48.9399 40.0002 48.9399C42.0339 48.9399 43.9479 48.3946 45.5526 47.3793V48.5395C45.5526 48.5554 45.5529 48.571 45.5538 48.5868ZM47.582 38.8855L45.3527 40.3721C44.6447 40.8442 43.8204 41.0938 42.9689 41.0938H40.9868C40.3398 41.0938 39.8149 41.6184 39.8149 42.2657C39.8149 42.913 40.3398 43.4376 40.9868 43.4376H42.9689C44.2845 43.4376 45.5587 43.0518 46.653 42.3218L47.1016 42.0228C46.0442 44.7514 43.3397 46.5962 40.0002 46.5962C35.6779 46.5962 32.4183 43.5062 32.4183 39.4086V29.9081C32.8803 27.7603 33.5496 26.3952 34.3565 25.9576C35.16 25.5212 36.3276 25.975 37.4568 26.4135C38.3366 26.755 39.1676 27.0779 40.0002 27.0779C40.8403 27.0779 41.6612 26.7517 42.5307 26.4065C43.6611 25.9573 44.7289 25.5331 45.5199 25.9457C46.0964 26.2463 46.9182 27.1823 47.582 29.9231V38.8855ZM53.0508 32.1289V37.1689C53.0508 37.815 52.525 38.3408 51.8789 38.3408H49.9258V30.957H51.8789C52.525 30.957 53.0508 31.4828 53.0508 32.1289ZM32.0655 22.2146C33.6885 20.3097 36.3579 19.3438 40.0002 19.3438C43.6425 19.3438 46.3118 20.3097 47.9348 22.2146C49.2126 23.7145 49.9126 25.8651 50.021 28.6132H49.6615C48.9538 26.0998 47.9717 24.5809 46.6036 23.8674C44.8607 22.9586 43.0889 23.6623 41.6652 24.2281C41.039 24.4769 40.3914 24.7341 39.9998 24.7341C39.6065 24.7341 38.9448 24.4772 38.3052 24.2288C36.8312 23.6559 34.9965 22.9433 33.2383 23.8973C31.9126 24.6169 30.9528 26.1645 30.3172 28.6132H29.9793C30.0874 25.8651 30.7877 23.7145 32.0655 22.2146ZM26.9495 37.1689V32.1289C26.9495 31.4828 27.4753 30.957 28.1214 30.957H30.0745V38.3408H28.1214C27.4753 38.3408 26.9495 37.815 26.9495 37.1689ZM23.057 54.1609L32.2383 50.2547C32.4439 51.5263 32.9548 53.2567 34.2073 54.6562H22.4988C22.623 54.4393 22.8165 54.2632 23.057 54.1609ZM45.793 54.6562C47.0455 53.2567 47.5564 51.5263 47.7621 50.2547L56.9433 54.1609C57.1838 54.2632 57.377 54.4393 57.5015 54.6562H45.793Z" fill="white"></path></svg>