<?xml version="1.0" encoding="UTF-8"?>
<svg id="Layer_1" xmlns="http://www.w3.org/2000/svg" version="1.1" viewBox="0 0 1080 1080">
  <!-- Generator: Adobe Illustrator 30.3.0, SVG Export Plug-In . SVG Version: 2.1.3 Build 182)  -->
  <defs>
    <style>
      .st0 {
        fill: #539bb1;
      }

      .st1 {
        fill: #005d82;
      }

      .st2 {
        fill: #005c83;
      }

      .st3 {
        fill: #26a9e1;
        font-family: Poppins-Medium, Poppins;
        font-size: 94.18px;
        font-weight: 500;
      }

      .st4 {
        fill: #fefefe;
      }
    </style>
  </defs>
  <path class="st1" d="M380.17,852.23c-25.83,26.16-65.1,25.05-91.01,1.87l-17.48-15.64c-54.67-5.11-91.45-49.38-80.06-100.48,9.31-41.78,48.63-65.64,89.86-64.94,29.38.5,55.15,10.45,73.76,33.5,17.39,21.53,21.61,49.1,11.74,77.13-7.71,21.89-28.46,42.07-56.13,51.23,14.5,16.47,38.25,15.54,53.54-.29,5.45,4.44,10.42,7.58,15.77,17.62ZM283.3,810.56c33.69-.94,56.59-26.19,55.82-56.43-.8-31.18-25.49-53.06-57.45-53.79-30.02-.68-55.52,18.35-57.98,48.92-1.42,17.69,2.9,32.87,14.52,45.13,10.52,11.09,26.07,16.7,45.1,16.16Z"/>
  <path class="st1" d="M499.41,767.69h-72.38s.02,42.45.02,42.45l96.24-.04c1.21,9.3,1.56,17.13-1.23,26.85l-122.35.7c-8.63-.71-12.43-6.97-12.39-15.31l.74-148.23,125.23.07c5.99,6.34,7.31,20.49.35,25.83l-86.55,1.05-.04,39.34h72.32s.04,27.29.04,27.29Z"/>
  <path class="st1" d="M691.23,834.92c-10.53-9.58-12.72-24.76-20.17-36.65l-80.41-.12-18.47,38.74c-11.05.63-21.48,2.35-32.1-1.57l74.33-158.66c9.11-3.7,23.23-6.22,31.03-.26,9.38,7.17,11.79,21.31,16.73,31.5l27.71,57.23,31.95,68.66c-8.01,4.36-23.91,7.19-30.58,1.12ZM661.43,773.4l-30.86-64.62-28.88,64.79,59.73-.17Z"/>
  <path class="st1" d="M775.9,793.61c23.65,24.16,64.63,22.3,88.58-1.16,5.56,5.32,11.1,10.6,20.85,16.21-19.55,31.45-72.73,36.73-108.5,21.06-46.13-20.21-63.51-74.3-35.79-118.09,29.15-46.04,109.18-53.26,144.73-10.16-8.31,6.2-15.8,10.97-21.18,17.66-12.86-13.79-29.24-18.69-47.15-18.57-22.1.15-42.31,11.92-50.82,30.11-9.52,20.33-8.71,44.55,9.28,62.93Z"/>
  <path class="st0" d="M518.97,97.05c-120.68,54.71-183.15,185.14-149.44,313.51l-72.45.24c-11.55.23-21.83,1.5-33.91,2.46l-53,4.22c-13.63-26.52-12.92-56.58-13.73-86.21-2.78-101.97,64.37-192.08,158.56-230.02,49.56-19.96,112.31-18.96,163.97-4.2Z"/>
  <path class="st0" d="M392.13,467.82c25.51,48.91,66.22,84.34,115.2,110.8-19.11,9.64-39.18,6.12-59.01,7.32-80.27,4.89-157.34-36.98-205.75-102.06,40.4-10.13,40.93-9.57,63.4-11.07l42.33-2.84c14.57-.98,26.76-2.15,43.83-2.15Z"/>
  <g>
    <path class="st4" d="M507.33,578.62l-17.89-4.43c-13.89-6.46-44.41-29.96-56.36-41.66-16.86-16.52-41.56-41.48-40.95-64.7l-11.96-22.93c-5.78-11.09-7.51-22.37-10.65-34.33-1.88-1.19-3.67-2.47-5.18-4.02-1.39-1.43-2.62-2.87-3.13-4.53-27.18-87.68,14.5-199.67,79.85-260.38,20.79-19.31,49.41-43.47,77.91-44.58,39.43-17.87,83.17-26.73,127.53-22.42,133.19,12.94,235.46,116.7,243.46,250.34,5.34,89.13-33.34,173.23-103.18,226.69-20.02,15.32-39.35,25.78-61.82,35.65-63.8,28.01-155.34,24.95-217.62-8.7Z"/>
    <path class="st2" d="M802.04,514.21c-130.2-66.44-271.12-102.78-416.43-109.28-6.52-28.41-10.72-54.55-6.48-81.77,167.18-28.23,335.44,3.2,483.9,85.1-10.82,39.91-32.17,74.94-60.99,105.95Z"/>
    <path class="st2" d="M453.79,174.37c-5.59,1.73-11.68,1.04-8.72-5.31,64.46-64.5,155.18-92.72,246.14-67.49,78.53,21.79,146.7,84.12,171.53,170.46-107.3-73.15-285.57-116.15-408.94-97.66Z"/>
    <path class="st2" d="M505.42,473.75c20.74.37,41.03,3.35,60.87,8.93,69.1,8.7,136.78,28.35,201.78,52.54,7.59,1.89.22,8.12-4.95,11.31-52.04,34.09-114.22,48.52-175.7,39.35l-33.9-9.02c-55.62-14.79-105.13-51.98-138.37-104.44l90.27,1.32Z"/>
  </g>
  <text class="st3" transform="translate(258.52 951.63)"><tspan x="0" y="0">QEAC #403</tspan></text>
</svg>