<svg xmlns="http://www.w3.org/2000/svg" width="30" height="30" viewBox="0 0 30 30" fill="none"><g clip-path="url(#clip0_1442_2241)"><path d="M24.6331 29.4886C18.2308 30.1716 11.774 30.1716 5.37169 29.4886C4.12843 29.3573 2.96773 28.8038 2.0831 27.9204C1.19847 27.037 0.643365 25.8771 0.510329 24.634C-0.172714 18.2317 -0.172714 11.775 0.510329 5.37267C0.64162 4.1294 1.1951 2.9687 2.07848 2.08407C2.96187 1.19945 4.1218 0.644341 5.36487 0.511306C11.7672 -0.171737 18.2239 -0.171737 24.6262 0.511306C25.8695 0.642596 27.0302 1.19607 27.9148 2.07946C28.7995 2.96285 29.3546 4.12277 29.4876 5.36585C30.1706 11.7681 30.1706 18.2249 29.4876 24.6272C29.3563 25.8705 28.8028 27.0312 27.9194 27.9158C27.0361 28.8004 25.8761 29.3555 24.6331 29.4886Z" fill="#0B66C3"></path><path d="M10.805 8.18182C10.805 8.68751 10.6551 9.18184 10.3741 9.60231C10.0932 10.0228 9.69388 10.3505 9.22668 10.544C8.75948 10.7375 8.24539 10.7882 7.74941 10.6895C7.25344 10.5909 6.79786 10.3473 6.44028 9.98976C6.0827 9.63218 5.83919 9.1766 5.74054 8.68063C5.64188 8.18465 5.69251 7.67056 5.88603 7.20337C6.07955 6.73617 6.40727 6.33685 6.82773 6.0559C7.2482 5.77495 7.74254 5.625 8.24823 5.625C8.92634 5.625 9.57667 5.89438 10.0562 6.37387C10.5357 6.85337 10.805 7.50371 10.805 8.18182Z" fill="white"></path><path d="M10.225 12.4432V23.7392C10.2255 23.8225 10.2095 23.9051 10.1779 23.9822C10.1463 24.0594 10.0998 24.1295 10.041 24.1886C9.98226 24.2477 9.91239 24.2945 9.83545 24.3265C9.7585 24.3585 9.67599 24.375 9.59265 24.375H6.89777C6.81443 24.3752 6.73188 24.359 6.65484 24.3272C6.57781 24.2954 6.50782 24.2487 6.44889 24.1898C6.38997 24.1308 6.34327 24.0609 6.31148 23.9838C6.2797 23.9068 6.26345 23.8242 6.26367 23.7409V12.4432C6.26367 12.275 6.33048 12.1137 6.4494 11.9948C6.56831 11.8759 6.72959 11.8091 6.89777 11.8091H9.59265C9.76053 11.8095 9.92137 11.8765 10.0399 11.9954C10.1585 12.1143 10.225 12.2753 10.225 12.4432Z" fill="white"></path><path d="M24.3115 18.3239V23.792C24.3117 23.8687 24.2968 23.9446 24.2676 24.0154C24.2383 24.0862 24.1954 24.1506 24.1412 24.2048C24.0871 24.2589 24.0227 24.3019 23.9519 24.3311C23.881 24.3603 23.8051 24.3752 23.7285 24.375H20.8308C20.7542 24.3752 20.6783 24.3603 20.6074 24.3311C20.5366 24.3019 20.4723 24.2589 20.4181 24.2048C20.3639 24.1506 20.321 24.0862 20.2918 24.0154C20.2625 23.9446 20.2476 23.8687 20.2478 23.792V18.4926C20.2478 17.7017 20.4797 15.029 18.1802 15.029C16.399 15.029 16.0359 16.8579 15.9643 17.6795V23.792C15.9643 23.9452 15.9041 24.0922 15.7966 24.2013C15.6891 24.3103 15.543 24.3728 15.3899 24.375H12.591C12.5145 24.375 12.4388 24.3599 12.3682 24.3306C12.2976 24.3013 12.2334 24.2583 12.1794 24.2041C12.1254 24.15 12.0826 24.0857 12.0535 24.015C12.0244 23.9443 12.0095 23.8685 12.0098 23.792V12.3937C12.0095 12.3173 12.0244 12.2415 12.0535 12.1708C12.0826 12.1001 12.1254 12.0358 12.1794 11.9816C12.2334 11.9275 12.2976 11.8845 12.3682 11.8552C12.4388 11.8259 12.5145 11.8108 12.591 11.8108H15.3899C15.5445 11.8108 15.6928 11.8722 15.8021 11.9815C15.9114 12.0909 15.9728 12.2391 15.9728 12.3937V13.379C16.6342 12.3869 17.6143 11.6216 19.7058 11.6216C24.3387 11.6216 24.3115 15.9477 24.3115 18.3239Z" fill="white"></path></g><defs><clipPath id="clip0_1442_2241"><rect width="30" height="30" fill="white"></rect></clipPath></defs></svg>