<?xml version="1.0" encoding="UTF-8"?>
<svg id="Layer_1" xmlns="http://www.w3.org/2000/svg" version="1.1" viewBox="0 0 1080 491.41">
  <!-- Generator: Adobe Illustrator 30.3.0, SVG Export Plug-In . SVG Version: 2.1.3 Build 182)  -->
  <defs>
    <style>
      .st0 {
        fill: #1f3f78;
      }
    </style>
  </defs>
  <path class="st0" d="M563.32,54.36c-2.53,4.03-11.63,6.27-16.98,7.47-1.48.02-3.76-1.52-4.54-2.74-3.38-5.29,10.46-13.77,17.21-12.85l4.32,8.12Z"/>
  <path class="st0" d="M529.68,93.39c-.28,3.54-6.69,5.27-12.01,3.2-1.15-.45-2.3-1.77-2.54-2.71-.34-1.3-.06-2.82.71-3.95,2.5-3.68,8.68-3.55,12.46-.11.97.88,1.49,2.29,1.38,3.58Z"/>
  <path class="st0" d="M581.25,50.15l-4.39.24c-.58.03-1.74-.32-2.12-.72-1.89-2.03,1.1-8.04,5.78-10.65,2.37-1.32,6.3-.48,6.9,2.53.71,3.59-2.38,8.4-6.17,8.61Z"/>
  <path class="st0" d="M473.63,119.89c-2.28,1.98-5.65,1.8-7.39-.39-1.98-2.5-2.01-6.19-.14-8.81,2.04-2.85,6.6-3.06,8.69-.15s1.48,7.05-1.17,9.35Z"/>
  <path class="st0" d="M550.79,103.17c-1.22,1.73-4.1,2.48-5.67.99-2.6-2.47-2.21-7.19.52-9.34,2.02-1.59,5.02-.89,5.96,1.32s.7,4.87-.81,7.03Z"/>
  <path class="st0" d="M621.76,30.74c-.39,6.95-6.39,9.86-6.72,7.88l-1-5.92c-.36-2.12,1.75-3.97,3.63-4.7.87-.34,2.16-.21,2.85.21.59.37,1.29,1.73,1.25,2.53Z"/>
  <path class="st0" d="M608.91,97.19c-.56,2.66-10.29,2.14-10.7-.43-.07-.41.28-1.39.65-1.66l5-3.68c2.47,1.65,5.43,3.99,5.05,5.77Z"/>
  <path class="st0" d="M503.28,104.98c-4.5,4.19-10.33,6.06-16.33,5.87-2.21-.07-5.88-2.89-4.18-5.17,3.58-4.43,16.87-11.16,20.77-8.11,2.29,1.79,1.9,5.39-.27,7.41Z"/>
  <g>
    <path class="st0" d="M559.61,101.62c-.85.66-3.12,1.06-3.71.37-2.4-2.82-1.49-6.68,1.2-8.97,2.93-2.49,6.35-4.24,10.15-5.27l19.67-5.34c4.51-1.22,11.52-2.97,10.59-6.24-.96-3.37-9.07-.34-13.55,1.84-9.21,4.49-18.46,8.45-28.51,10.74-4.82,1.1-11.59,1.55-12.84-2.06-.94-2.72,2.97-6.21,5.65-7.47l12.36-5.79,27.35-8.81,25.84-8.09,37.75-13.06c6.02-2.08,20.32-5.26,24.26-2.61,1.4.94,3.14,2.33,3.86,3.8,1.93,3.92,4.56,12.95,2.41,15.82-.24,16.96-10.92,28.42-26.89,32.91-8.95,2.51-18.25,3.02-27.43,1.37-4.91-.88-8.95-6.92-13.08-8.16-5.94-1.78-12.58-.33-17.4,3.49-4.73,3.74-4.55,15.57-11.52,12.37l-14.55-6.68c-1.75-.81-3.29-.64-4.76.5l-6.89,5.33Z"/>
    <path class="st0" d="M637.62,33.69c-3.47.18-6.62-.2-9.46-1.3-1.82-.71-2.53-2.62-1.53-4.31s2.52-3.61,4.34-4.44c3.74-1.71,7.53-2.6,11.49-3.62,5.93-1.53,11.71-2.47,17.79-3.03,4.26-.39,8.41-.26,12.27,1.8,1.04.55,2.13,1.65,2.44,2.53,1.01,2.89-1.61,7.49-7,8.58-9.93,2.01-19.89,3.24-30.33,3.78Z"/>
    <path class="st0" d="M537.39,104.96c-5.67,7.79-20.44,7.09-21.13,4.58-.61-2.21,11.17-8.5,15.71-10.47,1.78-.77,4.56.41,5.7,1.74,1.03,1.2.56,3-.28,4.16Z"/>
    <path class="st0" d="M449.11,123.43c1.46,4.59-7.36,11.08-16.56,8.6-.7-.19-1.57-.85-1.76-1.38-1.18-3.34,7.17-8.52,12.03-10.57,2.31-.97,5.63,1.29,6.29,3.35Z"/>
    <path class="st0" d="M552.84,115.19c-2.66,1.72-6.02,1.51-8.43-.25-1.19-.87-1.91-2.4-1.79-3.76.11-1.23,1.11-2.7,2.4-3.22,4.38-1.74,9.33.06,9.64,3.56.11,1.31-.53,2.83-1.82,3.66Z"/>
  </g>
  <path class="st0" d="M183.43,316.29l15.67-9.16,28.02-18.17,28.64-18.74,20.33-13.6c5.47-3.66,10.32-7.73,15.32-12.02,7.03-6.03,14.2-11.03,22.39-15.41,10.52-5.63,20.95-10.68,31.94-15.39,9.93-4.25,19.08-9.02,28.51-14.25l20.09-11.15c19.67-9.55,39.93-17.01,60.79-23.61l39.54-13.99,35.74-13.24c17.69-6.55,35.46-11.73,53.64-16.79l38.57-10.73,14.21-3.25,9.09-2.03c7.45-1.67,13.04.47,15.25-1.24l4.2-3.25c9.17-1.53,18.08-2.51,27.34-3.04l26.89-1.55,23.36-2.53,42.75-4.27c17.2-.78,36.85-.07,52.91,5.73,17.77,6.41,30.49,20.88,29.38,40.3-.86,15.06-8.97,26.16-19.57,36.42l-16.65,14.2c-11.28,8.92-22.98,16.69-35.55,23.76l-38.61,19.55-31.17,14.34-31.63,13.43-36.75,12.55-43.82,13.16-37.95,12.85-14.98,5.11c-10.79,3.68-21.91,5.37-33.16,7.35-6.74,1.5-15.78,4.16-22.24,6.47l-6.19-15.47,15.6-4.29,18.43-5.07,14.18-3.91c10.72-1.74,20.87-4.16,31.14-7.8l33.45-13.91,16.27-6.87c5.26-2.22,10.58-3.94,15.53-6.79,7.55-4.33,15.15-9.12,23.42-6.09,1.88.69,3.63,1.02,5.74,1.29.65.08,1.53.82,2.24,1.23,1.63.96,4.22-.6,5.29-2.09l4.53-6.33c1.28-1.78,2.86-3.4,4.86-4.37l8.87-4.3,29.38-15.23,8.81-4.69c4.35-1.62,9.07-.72,11.71,3.18.44.65,1.64,2,2.4,2.13,4,.68,9.02-.8,8.21-1.84-.19-.25-.75-.87-1.09-1.07l-4.97-2.85c-.32-3.55-.37-7.84,2.18-9.6l15.49-10.72,17.87-12.93c4.78-3.46,8.75-7.59,12.61-12.04,6.76-7.78,11.2-17.86,4.64-26.55-3.82-5.05-9.03-8.45-15.19-10.23-6.33-1.83-12.7-2.74-19.65-2.72l-35.79.09c-15.42.04-30.45.46-45.77,2.41l-36.15,5.5-50.77,7.83c-11.58,1.79-22.52,4.6-33.74,7.83l-33.77,9.73-11.47,4.33-14.35,4.94-36.44,6.68-8.17.87,3.09,4.34c.64,3.45-2.19,6.19-5.51,6.59-1.71.21-3.77.15-5.32.78l-20.28,8.2c-5.32,2.15-10.46,3.78-15.59,6.35l-12.6,6.31c-4.31,2.16-8.75,2.9-13.57,3.35l-10.96,1.02c-1.58.15-3.75.96-4.71,2.13l-6.79,8.31c-4.69,4.83-10.47,8.13-16.71,10.62l-16.34,5.29c-5.87,1.9-11.65,3.61-16.87,7.01l-31.74,20.63c-11.16,7.25-22.17,14.09-33.85,20.44l-24.1,14.06-20.49,12.28c-10.7,6.41-18.5,13.93-28.7,20.77l-.75-16.61ZM846.72,152.18l2.08-11.24c.8-4.3,1.39-8.47.24-12.73-1.36,1.63-1.97,3.55-2.26,5.62-.84,6.1-.64,12.11-.06,18.34Z"/>
  <path d="M318.98,403.59c-18.39,3.61-36.45-1.17-51.59-12.14l12.61-24.52c8.95,8.33,23.81,16.14,34.84,9.8,3.31-1.9,5.23-5.01,5.4-8.85.15-3.49-1.33-6.8-4.45-8.56-3.53-1.98-7.25-3.36-11.12-4.64l-13.36-4.39c-2.76-.91-5.26-2.3-7.7-3.86-5.4-3.43-9.13-8.57-10.54-14.93-4.48-20.17,3.77-41.06,24.08-47.62,15.3-4.95,34.83-.45,49.11,7.46l-11.78,23.64c-4.85-4.12-10.4-7.03-16.84-7.59-4.37-.57-8.59.42-11.98,3.08-2.48,1.94-3.39,4.65-3.04,7.84.29,2.7,2.28,4.94,5.08,6.42,10.49,5.56,21.57,5.52,32.9,14.38,5.32,4.16,8.71,9.75,9.7,16.55,1.74,12.02-.51,27.24-9.18,36.17-5.97,6.15-13.64,10.09-22.14,11.76Z"/>
  <polygon points="729.08 401.63 699.66 401.71 645.68 329.86 645.64 401.69 616.32 401.69 616.32 284.92 645.69 284.89 699.59 356.45 699.65 284.91 729.09 284.91 729.08 401.63"/>
  <path d="M508.14,314.47l.25.68,31.12,85.48.34,1.01c.06.18-.92.08-1.09.06h-30.2s-7.37-20.29-7.37-20.29h-40.32s-7.81,20.3-7.81,20.3l-31.2-.02,43.42-116.74,32.06-.03,4.92,13.37,5.88,16.2ZM481.19,320.75l-12.25,37.38,24.3-.02-12.05-37.36Z"/>
  <path d="M884.62,381.39h-40.34s-7.79,20.31-7.79,20.31l-31.21-.03,43.44-116.79,32.09.04,42.5,116.74-31.35.03-7.33-20.31ZM864.6,320.73l-12.23,37.4,24.28-.04-12.05-37.36Z"/>
  <polygon points="432.03 456.52 418.56 456.52 418.56 470.23 432.41 470.22 432.41 473.94 414.7 473.94 414.7 438.72 432.41 438.71 432.41 442.43 418.56 442.42 418.56 452.79 432.03 452.78 432.03 456.52"/>
  <path d="M591.54,454.87c-3.68.25-4.63,3.75-4.62,7.78v11.29s-3.73-.05-3.73-.05v-21.83s3.69-.06,3.69-.06l.21,2.29c2.6-3.36,7.98-4.22,11.11-.94,1.41,1.48,1.97,4.21,1.98,6.21l.03,14.33-3.62.03-.05-14.7c0-1.06-.66-2.58-1.24-3.21-.85-.92-2.4-1.23-3.74-1.13Z"/>
  <path d="M349.22,454.86c-3.66.39-4.7,3.35-4.72,7.4l-.05,11.68-3.6-.06v-21.81s3.5-.07,3.5-.07l.38,2.27c2.48-3.25,7.49-4.13,10.73-1.26,1.62,1.43,2.32,4.38,2.33,6.53l.09,14.35h-3.71s-.1-14.89-.1-14.89c-.02-2.77-2.29-4.42-4.85-4.15Z"/>
  <path d="M829.25,454.86c-3.79.42-4.73,3.54-4.73,7.79l-.02,11.26-3.61.04v-21.87s3.49-.08,3.49-.08l.38,2.28c2.56-3.32,7.78-4.18,10.89-1.09,1.75,1.73,2.19,4.78,2.2,7.15l.05,13.56-3.7.03-.1-14.91c-.02-2.76-2.29-4.43-4.86-4.15Z"/>
  <path d="M251.75,454.84c-3.98.29-4.99,3.29-5,7.79l-.03,11.29-3.62-.03v-21.81s3.59-.11,3.59-.11l.16,2.57c2.29-3.54,7.69-4.5,11-1.41,1.51,1.41,2.18,4.22,2.19,6.27l.09,14.49-3.74.02-.07-15.03c-.01-2.65-2.12-4.23-4.56-4.05Z"/>
  <path d="M175.51,456.06c-1.22,1.22-1.76,3.64-1.77,5.27l-.07,12.57h-3.68s0-21.83,0-21.83l3.59-.1.25,2.36c2.55-3.25,7.61-4.26,10.89-1.24,1.46,1.34,2.22,4.14,2.23,6.13l.1,14.7h-3.63s-.09-13.97-.09-13.97c0-1.42-.5-3.4-1.64-4.25-1.66-1.24-4.54-1.29-6.19.37Z"/>
  <path d="M874.59,456.29c-1.02,1.18-1.57,3.59-1.58,5.11l-.1,12.51-3.59-.03v-21.88s3.51,0,3.51,0l.28,2.38c2.56-3.32,7.53-4.31,10.9-1.32,1.37,1.21,2.19,3.9,2.2,5.77l.09,15.09-3.64-.03-.06-14.41c0-1.28-.58-3.1-1.63-3.81-1.81-1.22-4.74-1.29-6.38.62Z"/>
  <path d="M477.65,452.07l3.73-.07-.11,14.12c-.02,2.65-1.07,5.57-3.31,7.04-2.95,1.93-7.17,1.89-10.14-.03-2.14-1.39-3.22-4.23-3.24-6.74l-.08-14.34h3.6s.1,14.08.1,14.08c.02,2.99,1.8,4.94,4.69,4.95,2.64,0,4.67-1.68,4.68-4.56l.07-14.44Z"/>
  <path d="M898.18,469.85c3.84,2.5,8.2.85,10.75-2.66l.08,5.15c-3.63,2.57-8.18,2.94-12.14.88-3.59-1.86-5.86-5.74-5.9-10.15-.03-4.35,2.23-8.14,5.58-10.13,4-2.37,8.64-2.05,12.34.55l-.03,5.1c-2.58-3.4-6.76-4.94-10.44-2.65-2.38,1.49-3.57,4.06-3.66,6.58-.1,2.73.87,5.66,3.42,7.32Z"/>
  <path d="M492.87,469.79c3.82,2.67,8.24.84,10.81-2.58l.09,5.1c-3.71,2.61-8.22,2.96-12.21.9-3.7-1.91-5.93-5.98-5.85-10.49.07-4.28,2.45-8.04,5.8-9.9,4-2.22,8.49-1.87,12.08.67l-.03,5.09c-2.74-3.65-7.43-5.13-11.12-2.09-4.03,3.32-4.06,10.17.43,13.31Z"/>
  <path d="M718.68,469.75c3.81,2.67,8.26.92,10.79-2.53l.06,5.1c-3.6,2.56-8.03,2.89-11.96.98-3.66-1.78-5.98-5.82-6.03-10.24s2.27-8.27,5.72-10.22c3.97-2.25,8.44-1.93,12.19.66l-.07,5.11c-2.85-3.81-7.69-5.19-11.36-1.92s-3.74,9.99.65,13.06Z"/>
  <path d="M681.26,472.45c-1.98,2.02-4.74,2.44-7.34,1.79-2.32-.58-4.31-2.36-5.34-5.24l3.35-1.48c.82,2.16,2.02,3.4,4,3.51,1.8.1,3.2-.99,3.58-2.61.95-4.04-5.23-4.24-8.05-7.08s-1.48-7.52,1.71-9.21c3.38-1.79,7.32-.34,8.86,3.33l-3.16,1.63c-.83-1.92-2.1-2.38-3.52-2.09-1.22.25-2.51,1.9-1.53,3.36,1.6,2.39,6.63,2.42,8.68,5.82,1.56,2.58.92,6.07-1.25,8.28Z"/>
  <path d="M657.68,474.52c-3.53-.21-6.16-2.36-7.02-5.61l3.23-1.36c.82,1.79,1.91,3.17,3.61,3.44,1.99.32,3.62-.84,4.01-2.43,1.03-4.28-4.97-4.24-8.08-7.29-2.7-2.64-1.37-7.27,1.48-8.97,3.41-2.04,7.49-.67,9.13,3.18l-3.01,1.57c-.78-1.13-1.65-2.08-2.79-2.15-1.25-.08-2.43.91-2.67,1.9-.76,3.19,5,3.35,8.25,6.45,1.99,1.9,1.89,5.22.64,7.66-1.13,2.21-3.71,3.8-6.78,3.61Z"/>
  <rect x="390.55" y="435.45" width="3.62" height="38.5"/>
  <rect x="858.65" y="438.72" width="3.81" height="35.23"/>
  <rect x="159.27" y="438.72" width="3.85" height="35.22"/>
  <polygon points="776.74 473.84 773.13 473.95 773.12 455.59 770.93 455.33 770.9 452.11 773.13 451.91 773.12 444.14 776.74 444.14 776.74 451.99 780.57 452.03 780.61 455.42 776.74 455.44 776.74 473.84"/>
  <polygon points="296.7 473.88 293.08 473.95 293.08 455.59 290.89 455.34 290.86 452.11 293.09 451.92 293.07 444.14 296.7 444.14 296.69 452 300.4 452.01 300.44 455.41 296.7 455.45 296.7 473.88"/>
  <polygon points="197.58 473.83 193.95 473.92 193.95 455.44 191.73 455.4 191.78 452.07 193.95 451.95 193.94 444.12 197.58 444.13 197.57 451.98 201.38 452.02 201.43 455.42 197.59 455.44 197.58 473.83"/>
  <polygon points="539.15 473.85 535.52 473.9 535.52 455.54 533.28 455.36 533.31 452.03 535.53 451.93 535.51 444.13 539.15 444.12 539.14 451.99 542.86 452.03 542.9 455.43 539.14 455.43 539.15 473.85"/>
  <path d="M231.49,473.89h-3.72s0-21.89,0-21.89l3.71.04-.06,2.09,3.23-2.74c2.06-.08,3.44.19,4.89,1.02l-1.75,3.38c-.91-.58-2.09-1.01-3.12-.87-2.44.32-3.21,4.35-3.21,7.72l.02,11.26Z"/>
  <rect x="735.86" y="451.99" width="3.63" height="21.95"/>
  <rect x="304.36" y="452" width="3.71" height="21.95"/>
  <rect x="546.77" y="451.99" width="3.71" height="21.95"/>
  <rect x="784.4" y="452" width="3.71" height="21.96"/>
  <circle cx="548.61" cy="443.76" r="2.66"/>
  <circle cx="786.24" cy="443.75" r="2.66"/>
  <circle cx="737.63" cy="443.75" r="2.65"/>
  <circle cx="306.2" cy="443.75" r="2.66"/>
  <circle cx="918.09" cy="471.87" r="2.62"/>
  <path d="M454.28,471.15c-2.02,2.59-4.79,3.59-8.04,3.33-2.82-.22-5.62-1.76-7.31-4.51-2.83-4.6-2.71-10.79.7-15.06,3.85-4.83,10.69-4.73,14.84-.06l.05-19.38,3.6.02v38.37s-3.54.08-3.54.08l-.3-2.79ZM453.78,458.72c-1.1-2.35-3.18-3.63-5.39-3.83-2.51-.22-4.73.76-6.19,2.97-2.34,3.54-1.95,8.53,1.23,11.56,2.58,2.46,7.12,2.1,9.35-.79s2.46-6.81,1-9.92Z"/>
  <path d="M640.53,463.94l-14.42-.04-4.16,10.01-4.21-.06,15.71-36.84,15.31,36.84-4.3.06-3.93-9.97ZM633.36,446.36l-5.78,13.96,11.37-.08-5.59-13.88Z"/>
  <path d="M766.34,473.82l-3.69.16-.16-2.91c-1.98,2.53-4.62,3.58-7.71,3.45-2.9-.12-5.72-1.55-7.52-4.26-2.97-4.47-2.9-10.55.2-14.94,1.8-2.54,4.51-3.82,7.26-3.95,3.11-.15,5.91,1.11,7.81,3.63l.08-2.98,3.72.03v21.77ZM761.53,458.03c-1.3-2.14-3.45-3.15-5.68-3.17s-4.35,1.08-5.65,3.19c-2.12,3.46-1.78,8.25,1.19,11.22,2.43,2.44,6.82,2.42,9.21-.28,2.76-3.11,2.91-7.68.93-10.96Z"/>
  <path d="M286.3,473.88l-3.69.08-.15-2.9c-1.99,2.53-4.62,3.58-7.71,3.45-2.9-.13-5.72-1.55-7.52-4.26-2.82-4.24-2.9-9.91-.27-14.26,1.7-2.82,4.51-4.39,7.36-4.6,3.3-.25,6.2,1,8.17,3.61l.08-2.99,3.72.05v21.83ZM281.49,458.03c-1.3-2.15-3.45-3.14-5.68-3.16s-4.34,1.06-5.65,3.18c-2.12,3.44-1.77,8.24,1.19,11.22,2.5,2.52,7.05,2.38,9.39-.48,2.58-3.16,2.69-7.56.75-10.77Z"/>
  <path d="M528.75,473.83l-3.65.16-.25-2.91c-2.07,2.56-4.71,3.59-7.78,3.43-2.89-.15-5.7-1.61-7.46-4.3-2.95-4.51-2.88-10.44.19-14.88,1.75-2.53,4.52-3.83,7.21-3.98,3.11-.17,5.64,1.06,7.83,3.38l.25-2.71,3.65-.02v21.82ZM524.41,458.95c-1.12-2.67-3.57-4.09-6.26-4.1-2.62,0-4.99,1.59-6.14,4.24-1.44,3.33-.92,7.44,1.72,10.14,2.65,2.71,7.45,2.35,9.73-.81,2.09-2.91,2.23-6.46.95-9.48Z"/>
  <path d="M219.68,466.56l3.22,1.69c-1.38,3.23-4.26,5.37-7.33,6.01-3.7.77-7.39-.09-9.91-2.86-3-3.29-3.5-7.88-2.46-12.11.89-3.62,3.44-6.54,6.47-7.43,3.89-1.15,7.8-.41,10.34,2.44,2.31,2.6,3.06,5.93,3.07,9.41l-16.62.02c0,3.25,2.03,6.26,5.07,7.04,3.28.84,6.29-.49,8.16-4.21ZM212.66,454.9c-2.79.14-5.39,2.35-6,5.6l12.58-.11c-.89-3.77-3.52-5.65-6.58-5.5Z"/>
  <path d="M384.06,473.8l-3.67.18-.1-2.93c-2.23,2.67-5.22,3.82-8.69,3.38-2.98-.38-5.79-2.27-7.32-5.28-1.92-3.78-1.95-8.16-.23-12.02,1.39-3.13,4.16-5.12,7.07-5.63,3.71-.65,6.87.66,9.18,3.48l.05-2.95,3.69-.03.02,21.79ZM373.3,454.86c-2.61.09-4.93,1.69-6.02,4.36-1.36,3.32-.79,7.23,1.66,9.94,1.53,1.69,3.76,2.1,5.98,1.75,4.47-.72,6.93-6.84,4.88-11.8-1.14-2.77-3.67-4.34-6.5-4.24Z"/>
  <path d="M336.17,462.95c0,6.3-5.11,11.41-11.41,11.41s-11.41-5.11-11.41-11.41,5.11-11.41,11.41-11.41,11.41,5.11,11.41,11.41ZM324.77,455.12c-4.32,0-7.82,3.5-7.82,7.82s3.5,7.82,7.82,7.82,7.82-3.5,7.82-7.82-3.5-7.82-7.82-7.82Z"/>
  <path d="M578.58,462.95c0,6.3-5.11,11.41-11.41,11.41s-11.41-5.11-11.41-11.41,5.11-11.41,11.41-11.41,11.41,5.11,11.41,11.41ZM567.17,455.13c-4.32,0-7.82,3.5-7.82,7.82s3.5,7.82,7.82,7.82,7.82-3.5,7.82-7.82-3.5-7.82-7.82-7.82Z"/>
  <path d="M709.02,462.95c0,6.3-5.11,11.41-11.41,11.41s-11.41-5.11-11.41-11.41,5.11-11.41,11.41-11.41,11.41,5.11,11.41,11.41ZM697.61,455.13c-4.32,0-7.82,3.5-7.82,7.82s3.5,7.82,7.82,7.82,7.82-3.5,7.82-7.82-3.5-7.82-7.82-7.82Z"/>
  <path d="M816.21,462.95c0,6.3-5.11,11.41-11.41,11.41s-11.41-5.11-11.41-11.41,5.11-11.41,11.41-11.41,11.41,5.11,11.41,11.41ZM804.81,455.12c-4.32,0-7.82,3.5-7.82,7.82s3.5,7.82,7.82,7.82,7.82-3.5,7.82-7.82-3.5-7.82-7.82-7.82Z"/>
  <polygon points="186.03 333.91 186.02 401.7 156.7 401.68 156.69 284.94 185.98 284.9 186.03 315.12 186.03 333.91"/>
</svg>