<svg xmlns="http://www.w3.org/2000/svg" width="64" height="64" viewBox="0 0 64 64" fill="none"><circle cx="32" cy="32" r="32" fill="white"></circle><path d="M35.1037 23.7099C36.4908 24.5796 37.4635 26.0513 37.6406 27.7597C38.2063 28.024 38.8341 28.176 39.4998 28.176C41.93 28.176 43.8997 26.2063 43.8997 23.7765C43.8997 21.3463 41.93 19.3766 39.4998 19.3766C37.0928 19.3774 35.1404 21.3119 35.1037 23.7099ZM32.2213 32.7185C34.6514 32.7185 36.6211 30.7484 36.6211 28.3186C36.6211 25.8888 34.6511 23.9191 32.2213 23.9191C29.7915 23.9191 27.8207 25.8892 27.8207 28.319C27.8207 30.7488 29.7915 32.7185 32.2213 32.7185ZM34.0876 33.0184H30.3542C27.2478 33.0184 24.7207 35.5459 24.7207 38.6522V43.2179L24.7323 43.2894L25.0468 43.3879C28.0112 44.3141 30.5867 44.623 32.7065 44.623C36.8469 44.623 39.2467 43.4425 39.3946 43.3673L39.6885 43.2187H39.72V38.6522C39.7211 35.5459 37.1939 33.0184 34.0876 33.0184ZM41.3669 28.4762H37.6623C37.6222 29.9585 36.9895 31.2932 35.9888 32.2531C38.7499 33.0741 40.7701 35.6346 40.7701 38.6589V40.0659C44.4279 39.9319 46.5358 38.8952 46.6747 38.8255L46.9685 38.6765H47V34.1093C47 31.0034 44.4729 28.4762 41.3669 28.4762ZM24.5009 28.1767C25.3617 28.1767 26.1625 27.9255 26.8409 27.4976C27.0565 26.091 27.8106 24.8619 28.8877 24.0247C28.8922 23.9424 28.9 23.8607 28.9 23.7776C28.9 21.3474 26.93 19.3778 24.5009 19.3778C22.0704 19.3778 20.1011 21.3474 20.1011 23.7776C20.1011 26.2067 22.0704 28.1767 24.5009 28.1767ZM28.4523 32.2531C27.4564 31.298 26.8259 29.9704 26.7799 28.4972C26.6425 28.4871 26.5066 28.4762 26.3665 28.4762H22.6335C19.5271 28.4762 17 31.0034 17 34.1093V38.6758L17.0116 38.7462L17.3261 38.8454C19.7042 39.5878 21.8267 39.93 23.6702 40.0378V38.6589C23.6709 35.6346 25.6904 33.0749 28.4523 32.2531Z" fill="#5DC2D3"></path></svg>