<svg xmlns="http://www.w3.org/2000/svg" width="64" height="64" viewBox="0 0 64 64" fill="none"><circle cx="32" cy="32" r="32" fill="white"></circle><g clip-path="url(#clip0_667_3159)"><path d="M26.1734 30.5293C25.8809 30.2376 25.4962 30.0562 25.085 30.0162C24.6738 29.9761 24.2615 30.0799 23.9182 30.3097C23.5749 30.5395 23.3218 30.8813 23.2021 31.2767C23.0825 31.6721 23.1036 32.0968 23.2618 32.4784C23.4201 32.8601 23.7058 33.175 24.0702 33.3697C24.4346 33.5644 24.8552 33.6267 25.2604 33.5462C25.6656 33.4656 26.0303 33.247 26.2925 32.9277C26.5547 32.6084 26.6981 32.2081 26.6983 31.7949C26.6986 31.5598 26.6525 31.3269 26.5624 31.1096C26.4723 30.8924 26.3401 30.6952 26.1734 30.5293ZM17.4102 45.6621C17.3014 45.6621 17.1971 45.6189 17.1201 45.542C17.0432 45.4651 17 45.3608 17 45.252C17 45.1432 17.0432 45.0389 17.1201 44.962C17.1971 44.885 17.3014 44.8418 17.4102 44.8418H18.2756V43.7305C18.2756 43.209 18.5197 42.7339 18.9134 42.3851C19.3582 42.0007 19.9283 41.7921 20.5162 41.7988H22.2104C22.7983 41.7921 23.3684 42.0007 23.8132 42.3851C24.2069 42.7339 24.451 43.2089 24.451 43.7305V44.8417H25.3678V43.7305C25.3678 43.209 25.612 42.7339 26.004 42.3851C26.4495 42.0006 27.02 41.7921 27.6085 41.7988H29.3026C29.8905 41.7924 30.4604 42.0009 30.9054 42.3851C31.2991 42.7339 31.5416 43.2089 31.5416 43.7305V44.8417H32.4584V43.7305C32.4584 43.209 32.7026 42.7339 33.0962 42.3851C33.5411 42.0007 34.1111 41.7921 34.6991 41.7988H36.3932C36.9811 41.7921 37.5512 42.0007 37.996 42.3851C38.3896 42.7339 38.6338 43.2089 38.6338 43.7305V44.8417H39.5507V43.7305C39.5507 43.209 39.7948 42.7339 40.1868 42.3851C40.6322 42.0007 41.2027 41.7922 41.791 41.7988H43.4852C44.0731 41.7924 44.643 42.0009 45.088 42.3851C45.4817 42.7339 45.7258 43.2089 45.7258 43.7305V44.8417H46.5912C46.7 44.8417 46.8043 44.8849 46.8812 44.9618C46.9581 45.0387 47.0013 45.143 47.0013 45.2518C47.0013 45.3606 46.9581 45.4649 46.8812 45.5418C46.8043 45.6188 46.7 45.662 46.5912 45.662H17.4102V45.6621ZM28.7495 26.6144C28.7537 26.7228 28.7147 26.8284 28.641 26.908C28.5673 26.9875 28.4651 27.0346 28.3567 27.0388C28.3031 27.0409 28.2495 27.0324 28.1992 27.0137C28.1488 26.9951 28.1026 26.9668 28.0632 26.9303C27.9836 26.8566 27.9366 26.7544 27.9324 26.646L27.831 24.2277C26.839 25.7927 25.709 27.2657 24.4543 28.6292C23.0649 30.1329 21.5366 31.502 19.8898 32.7184C19.8028 32.7829 19.6937 32.8102 19.5866 32.7943C19.4795 32.7783 19.383 32.7205 19.3186 32.6335C19.2541 32.5464 19.2268 32.4374 19.2427 32.3302C19.2587 32.2231 19.3165 32.1267 19.4035 32.0622C21.0082 30.8756 22.4974 29.5403 23.8514 28.0742C25.0831 26.7374 26.1916 25.2921 27.1633 23.7559L24.8962 24.7625C24.8472 24.7842 24.7944 24.7961 24.7409 24.7974C24.6873 24.7987 24.634 24.7894 24.5841 24.7702C24.5341 24.7509 24.4884 24.7219 24.4496 24.685C24.4108 24.6481 24.3797 24.6039 24.358 24.5549C24.3363 24.5059 24.3245 24.4532 24.3231 24.3996C24.3218 24.3461 24.3311 24.2928 24.3504 24.2428C24.3696 24.1928 24.3986 24.1472 24.4355 24.1084C24.4724 24.0696 24.5167 24.0384 24.5656 24.0167L27.9938 22.4936C28.0473 22.4658 28.1063 22.4504 28.1666 22.4488C28.2202 22.4464 28.2737 22.4548 28.3241 22.4732C28.3745 22.4917 28.4207 22.52 28.4601 22.5565C28.4994 22.5929 28.5312 22.6368 28.5535 22.6856C28.5758 22.7344 28.5883 22.7871 28.5901 22.8408L28.7495 26.6144ZM32.4103 26.6294C32.4103 26.7382 32.3671 26.8425 32.2901 26.9194C32.2132 26.9963 32.1089 27.0395 32.0001 27.0395C31.8913 27.0395 31.787 26.9963 31.7101 26.9194C31.6332 26.8425 31.59 26.7382 31.59 26.6294V20.0786L30.3822 21.8608C30.3212 21.9498 30.2273 22.011 30.1213 22.031C30.0153 22.051 29.9056 22.0283 29.8163 21.9677C29.727 21.9071 29.6653 21.8137 29.6447 21.7078C29.624 21.6018 29.6462 21.4921 29.7062 21.4024L31.6629 18.5176C31.7235 18.4281 31.8172 18.3663 31.9234 18.3458C32.0296 18.3252 32.1395 18.3476 32.2292 18.408C32.2738 18.4399 32.3126 18.4792 32.3438 18.5243L34.2954 21.4027C34.3555 21.4923 34.3776 21.6021 34.357 21.708C34.3364 21.814 34.2746 21.9074 34.1853 21.968C34.096 22.0286 33.9864 22.0513 33.8803 22.0313C33.7743 22.0113 33.6805 21.9501 33.6194 21.8611L32.4102 20.0786L32.4103 26.6294ZM44.5982 32.0624C44.6413 32.0944 44.6777 32.1347 44.7052 32.1808C44.7328 32.2269 44.751 32.278 44.7588 32.3311C44.7666 32.3842 44.7638 32.4384 44.7507 32.4905C44.7376 32.5425 44.7143 32.5915 44.6822 32.6346C44.6502 32.6777 44.6099 32.7141 44.5638 32.7416C44.5177 32.7691 44.4666 32.7873 44.4135 32.7951C44.3604 32.8029 44.3062 32.8002 44.2541 32.7871C44.2021 32.7739 44.1531 32.7507 44.11 32.7186C42.4642 31.5017 40.9365 30.1326 39.5473 28.6294C38.2922 27.2663 37.1621 25.7932 36.1706 24.2278L36.0693 26.6462C36.0642 26.7539 36.0167 26.8552 35.9373 26.928C35.8578 27.0009 35.7528 27.0394 35.6451 27.0353C35.5374 27.0311 35.4356 26.9846 35.3621 26.9058C35.2885 26.827 35.249 26.7224 35.2521 26.6146L35.4099 22.8412C35.4121 22.7875 35.4248 22.7348 35.4473 22.686C35.4698 22.6373 35.5018 22.5934 35.5413 22.557C35.5808 22.5206 35.627 22.4923 35.6775 22.4738C35.7279 22.4553 35.7815 22.447 35.8351 22.4492C35.8954 22.4509 35.9544 22.4662 36.0079 22.4941L39.4361 24.0171C39.535 24.061 39.6124 24.1423 39.6513 24.2432C39.6903 24.3441 39.6875 24.4564 39.6437 24.5553C39.5999 24.6542 39.5185 24.7316 39.4176 24.7706C39.3167 24.8095 39.2044 24.8068 39.1055 24.7629L36.8383 23.7559C37.809 25.2928 38.9176 26.7383 40.1504 28.0742C41.5045 29.5404 42.9937 30.8756 44.5984 32.0622L44.5982 32.0624ZM40.7598 41.0414C40.748 41.0297 40.7363 41.0179 40.7249 41.0065C40.3746 40.6558 40.1274 40.2156 40.0102 39.734C39.8931 39.2523 39.9106 38.7478 40.0607 38.2754C40.2109 37.803 40.4879 37.3809 40.8617 37.0553C41.2354 36.7297 41.6914 36.513 42.1799 36.4289C42.1782 35.9075 41.9357 35.4324 41.5421 35.0853C41.0973 34.7008 40.5273 34.4923 39.9395 34.4989H38.2452C37.6568 34.4925 37.0863 34.701 36.6406 35.0853C36.2486 35.4324 36.0045 35.9074 36.0045 36.4289C36.4932 36.5127 36.9494 36.7292 37.3233 37.0548C37.6973 37.3804 37.9745 37.8025 38.1247 38.275C38.2749 38.7476 38.2923 39.2523 38.1749 39.734C38.0576 40.2158 37.8101 40.656 37.4595 41.0065L37.4246 41.0414C37.8591 41.1762 38.2604 41.4008 38.6023 41.7008C38.7882 41.8658 38.9527 42.0533 39.0923 42.2589C39.2319 42.0533 39.3964 41.8658 39.5823 41.7008C39.924 41.4005 40.3254 41.1758 40.76 41.0414H40.7598ZM33.6675 41.0414C33.6558 41.0297 33.6441 41.0179 33.6343 41.0065C33.2841 40.6559 33.037 40.2159 32.9198 39.7344C32.8027 39.2529 32.82 38.7485 32.9699 38.2762C33.1199 37.8039 33.3966 37.3818 33.77 37.0561C34.1434 36.7303 34.5991 36.5134 35.0874 36.4289C35.0874 35.9075 34.8433 35.4324 34.4513 35.0853C34.0057 34.701 33.4352 34.4925 32.8468 34.4989H31.1529C30.565 34.4926 29.9951 34.7011 29.5501 35.0853C29.1581 35.4324 28.914 35.9074 28.9123 36.4289C29.401 36.5127 29.8573 36.7292 30.2312 37.0548C30.6051 37.3804 30.8824 37.8025 31.0326 38.275C31.1828 38.7476 31.2001 39.2523 31.0828 39.734C30.9655 40.2158 30.7179 40.656 30.3673 41.0065C30.3556 41.0182 30.3438 41.03 30.3341 41.0414C30.768 41.1762 31.1687 41.4009 31.51 41.7008C31.6963 41.8654 31.8609 42.0529 32 42.2589C32.1397 42.0529 32.3049 41.8653 32.4917 41.7008C32.8327 41.4005 33.2334 41.1758 33.6675 41.0414ZM26.577 41.0414L26.5418 41.0065C26.1915 40.6558 25.9443 40.2156 25.8272 39.734C25.71 39.2523 25.7275 38.7478 25.8776 38.2754C26.0278 37.803 26.3049 37.3809 26.6786 37.0553C27.0523 36.7297 27.5083 36.513 27.9968 36.4289C27.9952 35.9075 27.7527 35.4324 27.359 35.0853C26.9142 34.7008 26.3441 34.4923 25.7562 34.4989H24.0624C23.474 34.4925 22.9035 34.701 22.4579 35.0853C22.0659 35.4324 21.8217 35.9074 21.8217 36.4289C22.3104 36.5127 22.7667 36.7292 23.1406 37.0548C23.5145 37.3804 23.7918 37.8025 23.942 38.275C24.0922 38.7476 24.1095 39.2523 23.9922 39.734C23.8749 40.2158 23.6274 40.656 23.2767 41.0065L23.2416 41.0414C23.6761 41.1761 24.0773 41.4008 24.4193 41.7008C24.6052 41.8658 24.7698 42.0533 24.9093 42.2589C25.0489 42.0533 25.2135 41.8658 25.3993 41.7008C25.741 41.4005 26.1423 41.1758 26.577 41.0414ZM43.9023 37.8308C43.6098 37.538 43.2249 37.3558 42.8131 37.315C42.4013 37.2743 41.9881 37.3776 41.6439 37.6074C41.2998 37.8371 41.046 38.1791 40.9257 38.5751C40.8055 38.971 40.8262 39.3964 40.9845 39.7788C41.1428 40.1611 41.4287 40.4768 41.7936 40.6719C42.1585 40.867 42.5798 40.9296 42.9857 40.8489C43.3915 40.7682 43.7569 40.5493 44.0194 40.2295C44.282 39.9096 44.4254 39.5086 44.4254 39.0948C44.4258 38.86 44.3797 38.6275 44.2899 38.4106C44.2002 38.1937 44.0684 37.9967 43.9023 37.8308ZM36.8117 37.8308C36.5193 37.538 36.1343 37.3558 35.7225 37.315C35.3107 37.2743 34.8976 37.3776 34.5534 37.6074C34.2092 37.8371 33.9554 38.1791 33.8352 38.5751C33.7149 38.971 33.7357 39.3964 33.894 39.7788C34.0522 40.1611 34.3382 40.4768 34.7031 40.6719C35.068 40.867 35.4893 40.9296 35.8951 40.8489C36.301 40.7682 36.6663 40.5493 36.9289 40.2295C37.1914 39.9096 37.3349 39.5086 37.3349 39.0948C37.335 38.8601 37.2889 38.6276 37.1991 38.4107C37.1093 38.1938 36.9777 37.9968 36.8117 37.8308ZM29.7195 37.8308C29.427 37.538 29.0421 37.3558 28.6303 37.315C28.2185 37.2743 27.8053 37.3776 27.4612 37.6074C27.117 37.8371 26.8632 38.1791 26.7429 38.5751C26.6227 38.971 26.6434 39.3964 26.8017 39.7788C26.96 40.1611 27.2459 40.4768 27.6108 40.6719C27.9757 40.867 28.397 40.9296 28.8029 40.8489C29.2088 40.7682 29.5741 40.5493 29.8366 40.2295C30.0992 39.9096 30.2427 39.5086 30.2427 39.0948C30.243 38.86 30.1969 38.6275 30.1071 38.4106C30.0174 38.1937 29.8856 37.9967 29.7195 37.8308ZM22.6272 37.8308C22.3348 37.5396 21.9506 37.3587 21.5398 37.3189C21.129 37.2792 20.7172 37.3831 20.3744 37.6129C20.0316 37.8427 19.7791 38.1842 19.6598 38.5792C19.5405 38.9743 19.5619 39.3985 19.7202 39.7796C19.8785 40.1607 20.164 40.4751 20.5281 40.6694C20.8923 40.8636 21.3124 40.9256 21.7171 40.8449C22.1218 40.7641 22.486 40.5456 22.7477 40.2265C23.0094 39.9074 23.1524 39.5075 23.1523 39.0948C23.1526 38.8599 23.1064 38.6273 23.0163 38.4103C22.9262 38.1934 22.794 37.9964 22.6275 37.8308H22.6272ZM40.3562 30.5293C40.0637 30.2375 39.6791 30.0561 39.2679 30.0161C38.8566 29.976 38.4442 30.0797 38.1009 30.3095C37.7575 30.5394 37.5044 30.8811 37.3847 31.2766C37.265 31.672 37.2861 32.0968 37.4444 32.4784C37.6026 32.8601 37.8883 33.1751 38.2527 33.3698C38.6172 33.5645 39.0378 33.6269 39.4431 33.5463C39.8483 33.4657 40.2131 33.2471 40.4753 32.9278C40.7375 32.6084 40.8809 32.2081 40.8811 31.7949C40.8814 31.5598 40.8353 31.3269 40.7452 31.1096C40.6551 30.8924 40.5229 30.6952 40.3562 30.5293ZM33.2656 30.5293C32.973 30.2361 32.5877 30.0534 32.1755 30.0125C31.7632 29.9715 31.3495 30.0747 31.0049 30.3046C30.6602 30.5344 30.406 30.8767 30.2854 31.2731C30.1648 31.6694 30.1855 32.0953 30.3437 32.4781C30.502 32.861 30.7881 33.1771 31.1533 33.3726C31.5186 33.5681 31.9403 33.631 32.3466 33.5504C32.753 33.4698 33.1188 33.2508 33.3818 32.9307C33.6448 32.6106 33.7886 32.2092 33.7888 31.7949C33.7894 31.5599 33.7434 31.3271 33.6536 31.1099C33.5639 30.8926 33.432 30.6953 33.2656 30.5293Z" fill="#5DC2D3"></path></g><defs><clipPath id="clip0_667_3159"><rect width="30" height="30" fill="white" transform="translate(17 17)"></rect></clipPath></defs></svg>