<svg xmlns="http://www.w3.org/2000/svg" width="64" height="64" viewBox="0 0 64 64" fill="none"><circle cx="32" cy="32" r="32" fill="white"></circle><g clip-path="url(#clip0_667_3187)"><path d="M32.0111 16.9805C26.8026 16.9737 22.5585 21.212 22.5586 26.4206C22.5587 29.883 24.4231 32.9096 27.2026 34.5523C27.6962 34.844 27.9949 35.3786 27.9949 35.9519V38.2513C28.0863 38.2131 28.1865 38.1919 28.2917 38.1919H35.7055C35.8107 38.1919 35.9109 38.2131 36.0022 38.2513V35.9519C36.0022 35.3718 36.3121 34.8388 36.8109 34.5427C39.5814 32.8977 41.4385 29.8762 41.4385 26.4205C41.4386 21.211 37.2189 16.9873 32.0111 16.9805Z" fill="#5DC2D3"></path><path d="M30.4898 35.9519C30.4898 35.3787 30.1911 34.844 29.6975 34.5523C26.918 32.9096 25.0536 29.883 25.0535 26.4206C25.0535 21.6384 28.6314 17.6746 33.2484 17.0628C32.8435 17.0093 32.4306 16.981 32.0112 16.9805C26.8027 16.9737 22.5585 21.212 22.5586 26.4206C22.5587 29.883 24.4231 32.9096 27.2026 34.5523C27.6962 34.844 27.9949 35.3787 27.9949 35.9519V38.2513C28.0863 38.2131 28.1865 38.1919 28.2917 38.1919H30.4898V35.9519Z" fill="#5DC2D3"></path><path d="M33.1812 38.6446C32.9312 38.6446 32.7285 38.4419 32.7285 38.1919V34.1404C32.7285 33.7332 32.8656 33.3315 33.1145 33.0093L33.7623 32.1705C33.8894 32.006 33.9594 31.8009 33.9594 31.5929V27.3648C33.9594 27.1148 34.1621 26.9121 34.4121 26.9121C34.6621 26.9121 34.8648 27.1148 34.8648 27.3648V31.5929C34.8648 32.0001 34.7277 32.4018 34.4788 32.724L33.831 33.5627C33.7039 33.7273 33.6339 33.9324 33.6339 34.1404V38.1919C33.6339 38.4419 33.4312 38.6446 33.1812 38.6446Z" fill="#5DC2D3"></path><path d="M30.8164 38.6446C30.5664 38.6446 30.3637 38.4419 30.3637 38.1919V34.1404C30.3637 33.9325 30.2937 33.7273 30.1666 33.5627L29.5188 32.724C29.2699 32.4018 29.1328 32.0001 29.1328 31.5929V27.3648C29.1328 27.1148 29.3355 26.9121 29.5855 26.9121C29.8355 26.9121 30.0382 27.1148 30.0382 27.3648V31.5929C30.0382 31.8009 30.1082 32.006 30.2353 32.1705L30.8832 33.0092C31.1321 33.3315 31.2691 33.7332 31.2691 34.1403V38.1918C31.2691 38.4419 31.0665 38.6446 30.8164 38.6446Z" fill="#5DC2D3"></path><path d="M38.5855 24.5721C38.0956 22.7465 36.837 21.22 35.1324 20.3842C34.9079 20.2741 34.8152 20.0028 34.9252 19.7784C35.0353 19.554 35.3066 19.4613 35.531 19.5712C37.4702 20.5222 38.9023 22.2594 39.46 24.3374C39.5248 24.5789 39.3815 24.8272 39.14 24.892C38.8988 24.9568 38.6503 24.8137 38.5855 24.5721Z" fill="#5DC2D3"></path><path d="M30.1719 44.8206V45.1523C30.1719 46.1578 30.9945 46.9805 32 46.9805C33.0055 46.9805 33.8281 46.1578 33.8281 45.1523V44.8206H30.1719Z" fill="#5DC2D3"></path><path d="M31.8084 45.1523V44.8206H30.1719V45.1523C30.1719 46.1578 30.9945 46.9805 32 46.9805C32.2937 46.9805 32.5716 46.9099 32.8183 46.7854C32.2208 46.4838 31.8084 45.864 31.8084 45.1523Z" fill="#5DC2D3"></path><path d="M34.8659 28.3196H29.1343C28.8843 28.3196 28.6816 28.1169 28.6816 27.8669C28.6816 27.6169 28.8843 27.4142 29.1343 27.4142H34.8659C35.1159 27.4142 35.3186 27.6169 35.3186 27.8669C35.3186 28.1169 35.1159 28.3196 34.8659 28.3196Z" fill="#5DC2D3"></path><path d="M20.3636 26.6315H18.8062C18.5562 26.6315 18.3535 26.4288 18.3535 26.1788C18.3535 25.9288 18.5562 25.7261 18.8062 25.7261H20.3636C20.6136 25.7261 20.8163 25.9288 20.8163 26.1788C20.8163 26.4288 20.6136 26.6315 20.3636 26.6315Z" fill="#5DC2D3"></path><path d="M20.8088 23.7586L19.3527 23.206C19.119 23.1173 19.0014 22.8559 19.0901 22.6222C19.1789 22.3884 19.4402 22.271 19.674 22.3595L21.1301 22.9121C21.3638 23.0009 21.4814 23.2623 21.3927 23.496C21.304 23.7296 21.0428 23.8473 20.8088 23.7586Z" fill="#5DC2D3"></path><path d="M19.0901 29.7354C19.0014 29.5017 19.119 29.2402 19.3527 29.1515L20.8088 28.5989C21.0424 28.5102 21.304 28.6277 21.3927 28.8615C21.4814 29.0953 21.3638 29.3567 21.1301 29.4454L19.674 29.998C19.4402 30.0867 19.1789 29.9692 19.0901 29.7354Z" fill="#5DC2D3"></path><path d="M45.1917 26.6315H43.6343C43.3843 26.6315 43.1816 26.4288 43.1816 26.1788C43.1816 25.9288 43.3843 25.7261 43.6343 25.7261H45.1917C45.4417 25.7261 45.6444 25.9288 45.6444 26.1788C45.6444 26.4288 45.4417 26.6315 45.1917 26.6315Z" fill="#5DC2D3"></path><path d="M42.6077 23.496C42.519 23.2622 42.6366 23.0008 42.8703 22.9121L44.3264 22.3595C44.56 22.2708 44.8215 22.3883 44.9103 22.6221C44.999 22.8558 44.8814 23.1173 44.6476 23.206L43.1916 23.7586C42.9578 23.8473 42.6965 23.7298 42.6077 23.496Z" fill="#5DC2D3"></path><path d="M44.3264 29.9981L42.8703 29.4455C42.6366 29.3567 42.519 29.0953 42.6077 28.8616C42.6965 28.6278 42.9578 28.5102 43.1916 28.599L44.6476 29.1516C44.8814 29.2403 44.999 29.5017 44.9103 29.7354C44.8215 29.969 44.5603 30.0867 44.3264 29.9981Z" fill="#5DC2D3"></path><path d="M35.1021 42.5959H28.8949C28.4618 42.5959 28.1094 42.9483 28.1094 43.3815V44.0501C28.1094 44.4833 28.4618 44.8356 28.8949 44.8356H35.1022C35.5353 44.8356 35.8877 44.4833 35.8877 44.0501V43.3815C35.8877 42.9483 35.5353 42.5959 35.1021 42.5959Z" fill="#5DC2D3"></path><path d="M35.1021 43.7159H28.8949C28.5402 43.7159 28.24 43.4794 28.1428 43.1559C28.1213 43.2275 28.1094 43.3031 28.1094 43.3815V44.0502C28.1094 44.4833 28.4618 44.8357 28.8949 44.8357H35.1022C35.5353 44.8357 35.8877 44.4833 35.8877 44.0502V43.3815C35.8877 43.3031 35.8758 43.2274 35.8543 43.1559C35.7571 43.4794 35.4569 43.7159 35.1021 43.7159Z" fill="#5DC2D3"></path><path d="M35.7071 40.3864H28.2933C27.8602 40.3864 27.5078 40.7388 27.5078 41.1719V41.8406C27.5078 42.2737 27.8602 42.6261 28.2933 42.6261H35.7071C36.1403 42.6261 36.4927 42.2737 36.4927 41.8406V41.1719C36.4927 40.7388 36.1403 40.3864 35.7071 40.3864Z" fill="#5DC2D3"></path><path d="M35.7072 41.5063H28.2934C27.9387 41.5063 27.6384 41.2698 27.5412 40.9463C27.5197 41.0178 27.5078 41.0935 27.5078 41.1719V41.8405C27.5078 42.2737 27.8602 42.6261 28.2933 42.6261H35.7071C36.1403 42.6261 36.4927 42.2737 36.4927 41.8405V41.1719C36.4927 41.0934 36.4808 41.0178 36.4593 40.9463C36.3621 41.2698 36.0619 41.5063 35.7072 41.5063Z" fill="#5DC2D3"></path><path d="M35.7071 38.1768H28.2933C27.8602 38.1768 27.5078 38.5291 27.5078 38.9623V39.631C27.5078 40.0641 27.8602 40.4165 28.2933 40.4165H35.7071C36.1403 40.4165 36.4927 40.0641 36.4927 39.631V38.9623C36.4927 38.5291 36.1403 38.1768 35.7071 38.1768Z" fill="#5DC2D3"></path><path d="M35.7072 39.2966H28.2934C27.9387 39.2966 27.6384 39.0602 27.5412 38.7367C27.5197 38.8083 27.5078 38.8839 27.5078 38.9623V39.631C27.5078 40.0641 27.8602 40.4165 28.2933 40.4165H35.7071C36.1403 40.4165 36.4927 40.0641 36.4927 39.631V38.9623C36.4927 38.8839 36.4808 38.8082 36.4593 38.7367C36.3621 39.0602 36.0619 39.2966 35.7072 39.2966Z" fill="#5DC2D3"></path></g><defs><clipPath id="clip0_667_3187"><rect width="30" height="30" fill="white" transform="translate(17 17)"></rect></clipPath></defs></svg>