<svg xmlns="http://www.w3.org/2000/svg" width="30" height="30" viewBox="0 0 30 30" fill="none"><g clip-path="url(#clip0_1442_2254)"><path d="M24.6331 29.4886C18.2308 30.1716 11.774 30.1716 5.37169 29.4886C4.12843 29.3573 2.96773 28.8038 2.0831 27.9204C1.19847 27.037 0.643365 25.8771 0.510329 24.634C-0.172714 18.2317 -0.172714 11.775 0.510329 5.37267C0.64162 4.1294 1.1951 2.9687 2.07848 2.08407C2.96187 1.19945 4.1218 0.644341 5.36487 0.511306C11.7672 -0.171737 18.2239 -0.171737 24.6262 0.511306C25.8695 0.642596 27.0302 1.19607 27.9148 2.07946C28.7995 2.96285 29.3546 4.12277 29.4876 5.36585C30.1706 11.7681 30.1706 18.2249 29.4876 24.6272C29.3563 25.8705 28.8028 27.0312 27.9194 27.9158C27.0361 28.8004 25.8761 29.3555 24.6331 29.4886Z" fill="#E60000"></path><path d="M23.9354 10.4898C23.5604 9.33578 22.3195 8.63692 21.1774 8.47669C17.0697 8.04032 12.9273 8.04032 8.81949 8.47669C7.67744 8.63692 6.43312 9.32896 6.06153 10.4898C5.47688 13.4687 5.47688 16.5329 6.06153 19.5119C6.43653 20.6642 7.67744 21.3648 8.81949 21.525C12.9273 21.9614 17.0697 21.9614 21.1774 21.525C22.3195 21.3648 23.5638 20.6727 23.9354 19.5119C24.52 16.5329 24.52 13.4687 23.9354 10.4898ZM12.7553 18.5932V11.4068L18.6053 15C16.6331 16.2119 14.7189 17.3863 12.7553 18.5932Z" fill="white"></path></g><defs><clipPath id="clip0_1442_2254"><rect width="30" height="30" fill="white"></rect></clipPath></defs></svg>